<svg width="243" height="281" viewBox="0 0 243 281" fill="none" xmlns="http://www.w3.org/2000/svg">
<path fill-rule="evenodd" clip-rule="evenodd" d="M118.418 2.63845C117.942 4.85178 116.982 6.14918 115.514 6.55646C113.499 7.11578 113.465 7.25677 115.098 8.30169C116.076 8.92644 116.875 9.90226 116.875 10.4699C116.875 11.0375 114.861 12.4298 112.398 13.5641C108.492 15.3628 108.227 15.6678 110.318 15.9534C111.637 16.1331 113.938 16.8353 115.431 17.5125C118.127 18.7353 118.13 18.751 115.919 19.7867C114.693 20.3598 113.104 20.7634 112.386 20.6823C111.668 20.6012 110.489 20.5837 109.764 20.6445C109.04 20.7044 108.447 21.1956 108.447 21.7365C108.447 22.2774 109.315 22.4792 110.377 22.1843C111.573 21.8526 113.038 22.3548 114.228 23.5047C115.284 24.5257 115.719 25.4084 115.195 25.4665C114.67 25.5255 113.767 25.6692 113.188 25.7872C112.608 25.9051 111.3 26.0645 110.28 26.1419C109.26 26.2184 107.615 27.1113 106.622 28.1249C105.63 29.1385 104.094 29.9742 103.209 29.9816C102.323 29.9899 100.888 30.4221 100.019 30.9418C98.8893 31.6181 100.764 31.8181 106.593 31.643C113.164 31.4449 115.1 31.7057 116.563 32.9865C118.275 34.4829 118.275 34.5751 116.574 34.5751C115.58 34.5751 114.768 33.9531 114.768 33.1929C114.768 32.4327 114.243 31.8107 113.602 31.8107C112.96 31.8107 112.694 32.3986 113.009 33.1164C113.324 33.8351 112.861 34.6644 111.982 34.9593C111.102 35.2551 109.628 35.4965 108.707 35.4965C107.786 35.4965 106.129 36.2116 105.025 37.0851C103.921 37.9586 101.514 39.0994 99.6752 39.6191C97.8357 40.1388 96.3313 41.1063 96.3313 41.7688C96.3313 42.4314 95.1461 43.7822 93.6975 44.77L91.0636 46.5668L95.2778 46.3927C97.5955 46.2968 100.611 45.7919 101.978 45.2704C103.989 44.5037 104.737 44.6511 105.899 46.0407C107.198 47.5952 107.399 47.6136 108.003 46.2342C108.371 45.3966 109.751 44.711 111.07 44.711C112.583 44.711 113.672 45.392 114.02 46.5539C114.429 47.9204 114.052 48.3968 112.562 48.3968C111.458 48.3968 110.324 48.4217 110.044 48.4512C109.764 48.4816 106.09 49.3376 101.879 50.3549C97.6693 51.3713 91.9444 53.4786 89.1589 55.0377C86.3723 56.5968 84.4959 58.225 84.9879 58.6554C85.4799 59.0857 88.0864 59.798 90.7803 60.2384C93.4741 60.6789 96.0626 60.7296 96.5315 60.3508C97.0013 59.973 98.333 60.0016 99.4919 60.4153C101.365 61.0843 101.387 61.1746 99.6931 61.2327C98.4531 61.2741 98.0696 61.6961 98.5953 62.4407C99.0399 63.0691 99.336 66.9051 99.2538 70.9641C99.1706 75.0231 98.8724 78.966 98.5911 79.7262C98.3088 80.4864 97.841 81.7304 97.5513 82.4906C97.2236 83.3494 96.9929 83.0867 96.9413 81.7995C96.8749 80.1519 96.2418 79.7262 93.8608 79.7262C92.193 79.7262 90.0101 78.9015 88.9418 77.8686C87.0792 76.069 87.0824 75.9694 89.0419 74.673C90.6349 73.6179 90.7286 73.3037 89.4834 73.1885C88.6142 73.1083 86.9549 72.9508 85.796 72.8384C84.6371 72.725 83.2148 72.5638 82.6354 72.4799C82.056 72.3951 82.2793 71.9409 83.1316 71.4691C83.9839 70.9973 84.3347 70.309 83.9112 69.9376C83.4867 69.5672 82.529 69.9947 81.7821 70.8885C80.4978 72.4246 80.0943 72.4301 74.4179 70.9862C69.7918 69.8105 68.4127 69.0512 68.4127 67.6819C68.4127 66.5006 69.1418 65.9044 70.5862 65.9044C72.4046 65.9044 72.7059 65.4142 72.4299 62.9097C72.1296 60.1859 71.7661 59.903 68.4127 59.7851C65.6578 59.6883 65.4576 59.762 67.6226 60.0772C69.2166 60.3085 70.5188 60.7812 70.5166 61.1276C70.5145 61.4741 68.8594 61.7892 66.8388 61.827C64.817 61.8648 62.8174 62.1983 62.395 62.5678C61.9715 62.9374 62.258 63.5824 63.0313 63.9998C64.1976 64.6301 64.1923 64.8448 63.0008 65.2594C62.1432 65.558 62.4729 65.7883 63.8225 65.8316C65.0646 65.8713 66.3394 66.496 66.6576 67.2193C66.9747 67.9427 66.6344 68.9692 65.9022 69.5009C64.9635 70.1818 64.2039 70.1477 63.3305 69.3838C62.3813 68.5536 62.0916 68.7803 62.0916 70.356C62.0916 71.4875 61.2624 72.6872 60.2479 73.0226C59.2333 73.359 57.8279 74.0713 57.1242 74.6066C56.4193 75.142 55.1319 76.1012 54.2607 76.7398C53.3904 77.3774 50.8851 78.2685 48.6938 78.72C46.2486 79.224 45.5227 79.6276 46.8154 79.7649C47.9742 79.8884 50.8693 80.0764 53.2503 80.1833C55.6303 80.2892 58.1187 80.6698 58.7814 81.0273C59.443 81.3848 59.9845 83.1043 59.9845 84.8486C59.9845 86.5929 60.4291 88.0193 60.9727 88.0193C61.5163 88.0193 61.8724 86.1377 61.7629 83.8387C61.588 80.1381 61.8061 79.6884 63.6719 79.9225C64.8307 80.0681 65.8379 80.7057 65.9106 81.3387C65.9833 81.9727 66.1013 82.9052 66.174 83.412C66.2467 83.9188 66.7682 84.3335 67.3329 84.3335C67.9818 84.3335 68.0071 83.5198 67.4003 82.1247C66.8725 80.9093 66.6744 79.7105 66.961 79.4608C67.2465 79.2102 68.4022 79.2157 69.5274 79.4728C70.6525 79.7308 71.5733 80.6974 71.5733 81.6226C71.5733 82.5468 71.1309 83.5429 70.5893 83.835C70.0478 84.128 69.8729 85.8106 70.2006 87.5751C70.5672 89.5507 70.366 90.7836 69.677 90.7836C69.0628 90.7836 68.3537 89.8511 68.103 88.7104L67.6458 86.6371L67.5025 88.7104C67.4045 90.1276 66.6923 90.7836 65.2521 90.7836C63.3589 90.7836 63.1451 91.3982 63.1451 96.8274C63.1451 100.86 63.518 102.669 64.265 102.266C64.8803 101.933 67.7258 101.598 70.5872 101.52C73.4486 101.444 75.7906 101.588 75.7906 101.841C75.7917 102.094 77.1707 102.386 78.8564 102.489C80.7759 102.606 82.1508 102.153 82.5343 101.278C82.8714 100.51 83.6278 100.141 84.2157 100.459C84.8036 100.777 85.5842 100.354 85.9498 99.519C86.4829 98.3036 86.7969 98.2456 87.5227 99.2297C88.2592 100.227 88.5952 100.235 89.3074 99.2711C89.7899 98.6178 91.5683 97.9958 93.2581 97.8889C94.948 97.7821 96.5747 97.4144 96.8728 97.0707C97.1699 96.7279 100.371 96.6818 103.984 96.9684C108.438 97.3223 110.554 97.8834 110.554 98.7118C110.554 99.3835 109.637 100.362 108.516 100.887C107.395 101.412 104.314 101.841 101.668 101.841C99.0231 101.841 96.8581 101.439 96.8581 100.948C96.8581 100.458 96.1069 100.308 95.1893 100.616C93.846 101.067 93.7944 101.328 94.9259 101.955C95.6992 102.384 95.8572 102.796 95.2778 102.869C94.6983 102.944 95.8836 103.316 97.9116 103.698C99.9923 104.088 91.6252 104.409 78.7026 104.435C65.6251 104.461 55.546 104.112 55.1994 103.621C54.8654 103.149 55.7777 102.763 57.2263 102.763C58.675 102.763 60.1278 102.383 60.4554 101.919C60.7831 101.456 60.4554 100.867 59.7274 100.61C58.676 100.24 58.675 100.129 59.7211 100.071C60.4459 100.031 61.038 99.3762 61.038 98.616C61.038 97.8558 60.8463 97.2338 60.6113 97.2338C60.3754 97.2338 58.124 98.1571 55.6071 99.2859C53.0891 100.415 50.8061 101.473 50.5333 101.639C50.2604 101.805 50.7345 102.327 51.5868 102.798C52.5855 103.35 47.7973 103.661 38.1237 103.67C25.4887 103.682 23.1109 103.903 23.1109 105.066C23.1109 105.826 22.6611 106.448 22.1101 106.448C21.5601 106.448 18.9084 107.748 16.2177 109.336C12.6072 111.467 11.697 112.429 12.741 113.007C13.5196 113.438 15.4876 113.798 17.1153 113.806C19.0812 113.815 19.8229 114.177 19.3235 114.884C18.881 115.51 19.0317 115.699 19.6901 115.343C20.3054 115.01 21.9194 115.109 23.2774 115.561C25.71 116.374 25.6994 116.394 22.5842 117.023C20.8458 117.373 17.2902 118.27 14.6827 119.016C12.0752 119.762 7.80839 120.605 5.2009 120.89C2.59342 121.175 0.261954 121.567 0.0206951 121.761C-0.220563 121.954 1.67579 122.178 4.23482 122.259C6.79384 122.338 9.46665 122.386 10.1725 122.365C10.8794 122.344 11.7412 123.108 12.0878 124.063C12.4713 125.121 13.6945 125.799 15.2179 125.799C16.5938 125.799 18.0118 126.213 18.37 126.72C18.7282 127.227 20.1505 127.642 21.5306 127.642C22.9108 127.642 24.3404 128.067 24.7081 128.588C25.0758 129.108 25.9333 129.474 26.6139 129.4C27.2945 129.326 28.7326 129.315 29.8082 129.376C30.9861 129.441 31.5486 129.978 31.221 130.723C30.8259 131.623 31.4138 131.838 33.3723 131.511C35.1117 131.22 35.8207 131.408 35.374 132.041C34.9684 132.615 35.9977 133.274 37.8604 133.631C39.6092 133.967 40.7649 134.629 40.431 135.104C40.096 135.577 39.3806 135.727 38.8412 135.434C38.3018 135.143 37.8224 135.655 37.7771 136.571C37.7287 137.538 37.4705 137.755 37.1629 137.087C36.87 136.453 35.9745 135.935 35.1717 135.935C34.331 135.935 33.9602 136.5 34.2973 137.268C34.6386 138.045 36.712 138.746 39.2689 138.95L43.6548 139.299L38.6505 139.459C35.8987 139.548 33.6462 140.052 33.6462 140.578C33.6462 141.141 33.0594 141.057 32.225 140.375C31.4433 139.737 30.9018 138.58 31.0208 137.805C31.1399 137.029 31.0335 136.914 30.7838 137.547C30.5352 138.181 29.4174 138.699 28.3017 138.699C27.1849 138.699 26.2715 139.037 26.2715 139.45C26.2715 139.863 27.9308 140.893 29.9589 141.739C31.9869 142.585 33.6462 143.929 33.6462 144.728C33.6462 145.526 34.0761 145.947 34.6007 145.663C35.1254 145.38 35.3076 144.318 35.0042 143.305C34.6502 142.121 34.9726 141.463 35.9071 141.463C36.7067 141.463 37.8287 142.356 38.4008 143.448C39.2963 145.159 40.4636 145.475 46.8154 145.725C50.8715 145.886 55.3753 146.273 56.8239 146.586C59.4461 147.152 59.4419 147.162 55.7704 148.967C52.9827 150.338 52.7257 150.637 54.7168 150.194C56.1654 149.872 58.4179 149.385 59.7211 149.114C61.6291 148.716 62.0916 149.014 62.0916 150.637C62.0916 151.745 62.8027 153.275 63.6719 154.035C65.0762 155.263 65.2521 155.16 65.2521 153.108C65.2521 151.837 65.7779 149.63 66.4205 148.204L67.5878 145.61L68.7615 147.914C69.4073 149.181 70.4081 150.506 70.9865 150.859C71.566 151.211 71.7524 151.75 71.4027 152.056C71.0529 152.361 71.174 154.197 71.6724 156.135C72.2739 158.479 72.1212 161.195 71.2151 164.249C70.4671 166.775 70.0552 170.349 70.3007 172.192C70.5472 174.035 71.1709 175.314 71.6871 175.035C72.2044 174.756 72.6269 174.953 72.6269 175.474C72.6269 175.995 73.2537 176.211 74.0196 175.953C74.8203 175.684 75.9455 176.51 76.6672 177.894C77.3572 179.219 77.6743 180.653 77.372 181.08C77.0685 181.509 77.5711 182.514 78.4866 183.315C79.4032 184.117 80.5926 184.772 81.1299 184.772C81.6683 184.772 82.1086 183.735 82.1086 182.468C82.1086 181.201 81.5397 180.164 80.8444 180.164C79.8615 180.164 79.8615 179.918 80.8444 179.059C81.5397 178.451 82.1086 177.201 82.1086 176.281C82.1086 175.363 81.6493 173.89 81.0888 173.01C80.5273 172.13 79.6655 168.404 79.1724 164.73C78.6794 161.055 78.6299 158.05 79.0629 158.05C79.4959 158.05 80.1912 160.434 80.6084 163.348C81.1215 166.936 81.5977 168.071 82.0823 166.864C82.5922 165.596 83.0284 165.408 83.5983 166.214C84.0377 166.836 83.8238 167.949 83.1242 168.687C82.3794 169.471 82.293 170.029 82.9156 170.029C83.5025 170.029 83.9597 170.547 83.9323 171.18C83.906 171.814 83.9586 175.546 84.0492 179.473C84.1556 184.031 84.6413 186.615 85.3925 186.615C86.0499 186.615 86.3259 185.802 86.0172 184.772C85.7149 183.758 85.8582 182.929 86.3375 182.929C86.8169 182.929 87.5543 184.277 87.9779 185.924C88.4435 187.741 88.9555 188.375 89.28 187.536C89.5729 186.776 90.5864 185.532 91.5304 184.772C92.7525 183.789 93.1981 181.994 93.0738 178.552C92.979 175.892 93.2655 173.714 93.7133 173.714C94.16 173.714 94.8132 174.37 95.165 175.172C95.5169 175.974 95.8045 178.229 95.8045 180.186C95.8045 182.141 96.3071 184.013 96.9223 184.345C97.5745 184.699 97.9137 187.39 97.7378 190.827C97.5355 194.763 97.8916 197.091 98.8155 197.878C99.9491 198.844 100.083 198.417 99.5646 195.48C99.0747 192.704 99.3486 191.631 100.793 190.672C101.816 189.993 102.135 189.424 101.502 189.408C100.856 189.392 100.384 187.765 100.425 185.693C100.465 183.666 100.802 182.007 101.174 182.007C101.546 182.007 102.144 183.563 102.503 185.463C102.862 187.364 103.161 190.083 103.168 191.507C103.174 192.999 102.734 193.854 102.126 193.526C101.488 193.181 101.072 194.455 101.072 196.751C101.072 199.541 100.723 200.362 99.7553 199.853C98.7428 199.321 98.7154 199.468 99.6394 200.49C100.3 201.221 100.808 203.477 100.768 205.504C100.715 208.13 99.9755 209.786 98.195 211.263C96.2934 212.841 96.0932 213.337 97.3564 213.337C98.2698 213.337 99.3876 214.269 99.8406 215.41C100.294 216.551 100.324 221.008 99.908 225.316C99.4919 229.623 98.9135 234.289 98.6238 235.682C98.2529 237.468 98.5363 238.216 99.5846 238.216C100.585 238.216 101.102 239.347 101.161 241.671L101.25 245.127L103.231 241.366C105.011 237.984 105.531 237.645 108.375 238.01C110.412 238.271 111.813 239.119 112.308 240.39C112.732 241.474 113.03 242.57 112.971 242.823C112.912 243.077 113.528 243.818 114.342 244.472C115.197 245.158 115.822 245.256 115.822 244.702C115.822 244.176 116.533 243.745 117.402 243.745C118.393 243.745 119.029 244.689 119.107 246.279C119.176 247.672 119.163 249.155 119.081 249.572C118.998 249.99 119.416 250.07 120.009 249.748C120.604 249.427 121.089 247.531 121.089 245.533C121.089 243.536 121.445 241.902 121.879 241.902C122.313 241.901 122.573 249.769 122.455 259.385C122.748 268.589 123.916 277.199 123.916 277.199C123.916 277.199 127.657 289.038 134.072 270.928C134.406 268.9 134.872 263.924 135.106 259.87C135.341 255.816 135.602 250.919 135.686 248.989C135.786 246.682 136.238 245.694 137.005 246.109C137.811 246.545 137.957 245.887 137.477 243.977C136.955 241.898 137.205 241.072 138.485 240.643C139.421 240.329 139.961 239.753 139.685 239.363C139.41 238.972 139.837 237.623 140.634 236.361C141.433 235.101 142.116 234.484 142.154 234.991C142.191 235.498 143.631 233.296 145.351 230.099C147.073 226.901 148.94 224.534 149.503 224.838C150.066 225.142 150.78 224.441 151.089 223.28C151.398 222.119 151.768 216.193 151.91 210.112C152.141 200.224 152.363 199.068 154.012 199.182C155.027 199.252 155.856 198.782 155.856 198.137C155.856 197.493 157.16 196.738 158.753 196.459C160.911 196.083 162.127 196.467 163.519 197.965L165.388 199.976L165.099 197.211C164.833 194.654 165.186 194.343 169.81 193.065L174.809 191.683L174.814 184.044C174.818 178.064 174.33 175.563 172.571 172.526C171.334 170.392 169.971 168.439 169.542 168.186C169.113 167.932 168.472 166.274 168.116 164.5C167.761 162.726 167.741 161.793 168.071 162.427C168.402 163.06 169.464 163.545 170.429 163.506C171.525 163.46 171.69 163.258 170.869 162.968C170.145 162.712 169.552 161.865 169.552 161.085C169.552 160.089 169.944 159.932 170.869 160.56C171.593 161.051 174.813 161.543 178.025 161.653C182.955 161.82 184.842 161.368 190.141 158.744C193.592 157.036 197.717 154.891 199.305 153.978C200.895 153.065 202.834 152.533 203.615 152.795C204.397 153.057 205.492 152.999 206.049 152.666C206.608 152.333 208.105 150.56 209.378 148.726C210.651 146.893 211.693 144.981 211.693 144.478C211.693 143.974 210.505 143.761 209.053 144.003C207.601 144.246 205.824 144.037 205.102 143.54C204.381 143.042 202.444 142.805 200.797 143.013C199.152 143.222 197.153 142.919 196.357 142.342C195.45 141.683 193.324 141.525 190.659 141.919C188.006 142.311 186.408 142.194 186.408 141.608C186.408 141.092 187.474 140.487 188.779 140.263L191.149 139.855L188.79 139.172C187.493 138.797 186.697 138.115 187.019 137.658C187.343 137.201 188.049 137.064 188.588 137.357C189.127 137.648 189.569 137.421 189.569 136.853C189.569 136.284 190.398 135.909 191.412 136.019C192.427 136.128 194.083 135.903 195.093 135.519C196.105 135.135 196.65 134.421 196.305 133.933C195.959 133.446 196.674 132.818 197.891 132.54C199.108 132.262 200.104 131.668 200.104 131.22C200.104 130.773 201.262 130.406 202.676 130.406C204.842 130.406 205.405 131.024 206.25 134.322C207.031 137.369 207.279 137.676 207.366 135.704C207.428 134.311 208.427 132.341 209.586 131.328C210.745 130.314 211.693 129.104 211.693 128.64C211.693 128.174 213.913 127.053 216.626 126.146C220.413 124.881 221.659 124.768 222 125.659C222.312 126.482 222.832 126.351 223.79 125.205C224.538 124.31 227.888 123.085 231.321 122.451C234.722 121.824 239.164 121.241 241.192 121.158C244.211 121.034 243.639 120.777 238.031 119.739C234.265 119.043 230.36 118.048 229.354 117.528C228.348 117.009 226.665 116.584 225.614 116.584C224.563 116.584 223.126 116.079 222.42 115.462C221.714 114.845 219.604 114.28 217.732 114.208C215.859 114.135 212.347 113.596 209.928 113.01C206.342 112.14 205.406 111.447 204.854 109.252C204.395 107.422 203.443 106.469 201.878 106.274C200.42 106.093 199.453 105.225 199.239 103.904C198.964 102.209 199.523 101.712 202.241 101.237L205.58 100.652L201.595 99.4545C199.403 98.7947 197.202 98.4759 196.703 98.7459C196.205 99.015 195.107 98.7339 194.263 98.1221C193.419 97.5093 192.729 96.6929 192.729 96.3068C192.729 95.9217 193.678 95.3891 194.836 95.1237C195.995 94.8592 196.943 95.0288 196.943 95.5005C196.943 95.9732 198.366 95.7162 200.104 94.9302C201.842 94.1442 203.265 93.1508 203.265 92.7233C203.265 92.2957 201.487 91.6894 199.314 91.3752C197.142 91.061 194.017 90.7993 192.371 90.7938C190.553 90.7873 188.623 89.97 187.45 88.7104C186.03 87.1835 185.612 85.4586 185.863 82.1653C186.131 78.6582 186.901 77.0651 189.434 74.7799L192.663 71.8662L187.356 69.2576C184.438 67.8229 181.861 66.1707 181.629 65.5856C181.398 65.0005 180.986 59.1364 180.714 52.5526C180.272 41.8674 179.987 40.418 178.046 39.0441C176.851 38.1973 175.873 37.2602 175.873 36.9616C175.873 36.6621 176.584 36.418 177.453 36.418C178.322 36.418 179.033 36.2069 179.033 35.9489C179.033 35.6909 177.679 34.2396 176.022 32.7239C174.366 31.2081 172.758 29.9678 172.449 29.9678C172.14 29.9678 171.589 31.0044 171.226 32.2714C170.862 33.5384 169.945 34.5751 169.187 34.5751C168.277 34.5751 167.957 35.4523 168.243 37.1616C168.515 38.7806 168.053 40.2014 167.007 40.9598C165.786 41.8472 165.338 43.8375 165.338 48.3747C165.338 51.7859 165.036 57.0944 164.669 60.1721C164.068 65.2004 163.726 65.827 161.287 66.3624C159.344 66.789 158.186 66.496 157.214 65.334C156.467 64.4402 155.856 64.2117 155.856 64.8263C155.856 65.4409 154.716 66.3983 153.322 66.954C151.242 67.7823 150.015 67.5833 146.474 65.8427C144.102 64.6761 142.16 63.3843 142.16 62.9705C142.16 62.5568 143.053 62.2186 144.146 62.2186C145.238 62.2186 148.557 61.534 151.52 60.6964C154.484 59.8597 156.909 58.8793 156.909 58.5181C156.909 58.1569 155.132 56.8355 152.959 55.5805C150.786 54.3255 147.621 52.5544 145.928 51.6431C143.166 50.1587 143.029 49.8721 144.596 48.8705C145.556 48.2559 146.468 46.7613 146.622 45.5495C146.85 43.7481 145.652 42.6285 140.053 39.4108C136.286 37.2463 133.052 34.8579 132.865 34.1042C132.671 33.3246 133.272 32.7322 134.256 32.7322C135.21 32.7322 136.623 32.1774 137.398 31.5002C138.573 30.4728 137.847 29.8572 133.01 27.7821C128.161 25.7024 127.423 25.0758 128.495 23.9461C129.471 22.9168 129.485 22.2893 128.549 21.3034C127.607 20.311 127.639 19.8917 128.683 19.4973C129.432 19.2144 128.793 19.208 127.262 19.4826C125.732 19.7563 124.163 19.5333 123.776 18.985C123.339 18.3658 124.192 17.964 126.031 17.9244C127.659 17.8885 129.939 17.5356 131.098 17.1393C132.964 16.5026 132.714 16.2004 128.92 14.5077C126.563 13.4554 124.078 12.0078 123.398 11.29C122.4 10.2386 122.72 9.7539 125.048 8.79467L127.937 7.60323L124.465 6.3261C122.556 5.62395 121.279 4.64353 121.629 4.14871C121.978 3.65389 121.559 2.36754 120.696 1.28944C119.163 -0.623492 119.111 -0.592161 118.418 2.63845ZM120.036 45.6131C120.036 46.0462 119.444 46.6092 118.719 46.8654C117.995 47.1206 118.468 47.363 119.772 47.4026C121.077 47.4422 122.143 47.8338 122.143 48.2706C122.143 48.7083 121.077 48.9691 119.772 48.8493C118.468 48.7295 117.147 48.5793 116.836 48.5148C116.524 48.4494 116.206 47.6532 116.128 46.7447C116.04 45.7255 116.761 45.0409 118.011 44.9589C119.124 44.8852 120.036 45.18 120.036 45.6131ZM125.018 46.189C124.668 46.495 123.759 46.5281 122.999 46.2618C122.159 45.9679 122.408 45.7495 123.636 45.7053C124.746 45.6657 125.368 45.8831 125.018 46.189ZM101.072 52.4448C101.072 52.6438 100.361 53.0456 99.4919 53.3377C98.6227 53.6288 97.9116 53.4658 97.9116 52.9755C97.9116 52.4844 98.6227 52.0826 99.4919 52.0826C100.361 52.0826 101.072 52.2457 101.072 52.4448ZM112.661 63.1401C112.661 63.6469 112.187 64.0615 111.607 64.0615C111.028 64.0615 110.554 63.6469 110.554 63.1401C110.554 62.6333 111.028 62.2186 111.607 62.2186C112.187 62.2186 112.661 62.6333 112.661 63.1401ZM122.67 63.1401C122.311 63.6469 121.573 64.0615 121.027 64.0615C120.481 64.0615 120.036 63.6469 120.036 63.1401C120.036 62.6333 120.775 62.2186 121.678 62.2186C122.581 62.2186 123.028 62.6333 122.67 63.1401ZM85.2692 70.5117C85.2692 71.0185 85.9519 71.4331 86.7874 71.4331C87.6228 71.4331 88.5984 71.0185 88.9566 70.5117C89.3148 70.0049 88.631 69.5902 87.4384 69.5902C86.2458 69.5902 85.2692 70.0049 85.2692 70.5117ZM74.7339 76.0404C74.7339 76.5472 74.5253 76.9618 74.2693 76.9618C74.0133 76.9618 73.5118 76.5472 73.1536 76.0404C72.7954 75.5336 73.0051 75.1189 73.6182 75.1189C74.2314 75.1189 74.7339 75.5336 74.7339 76.0404ZM118.982 77.9377C118.982 78.474 118.558 78.684 118.039 78.4039C117.52 78.1229 116.783 78.6057 116.402 79.4756C115.811 80.8227 115.568 80.8577 114.755 79.7078C114.006 78.6481 113.528 78.5993 112.519 79.482C111.511 80.3639 110.901 80.362 109.67 79.4737C108.431 78.5799 108.012 78.5854 107.659 79.5014C107.413 80.1381 106.78 80.4247 106.25 80.1381C105.72 79.8515 105.286 79.2535 105.286 78.8084C105.286 78.3643 106.828 77.8326 108.71 77.6281C110.593 77.4244 113.676 77.1904 115.558 77.1093C117.441 77.0282 118.982 77.4014 118.982 77.9377ZM173.054 81.9395C173.365 82.65 173.35 83.4682 173.02 83.7576C172.689 84.0469 172.011 84.0626 171.512 83.7935C171.013 83.5235 170.605 82.7062 170.605 81.9755C170.605 81.2448 171.029 80.6477 171.546 80.6477C172.063 80.6477 172.742 81.2291 173.054 81.9395ZM109.5 84.2321C109.5 84.9361 108.671 86.11 107.657 86.8407C105.948 88.0727 105.945 88.1335 107.623 87.6737C108.619 87.401 109.661 87.5014 109.94 87.8958C110.219 88.2902 105.655 89.1047 99.7985 89.7055C93.9408 90.3072 88.9397 90.615 88.6837 90.392C88.4277 90.1681 88.4962 89.5931 88.8344 89.114C89.1726 88.6348 91.2343 87.4959 93.4172 86.5836C95.5991 85.6705 98.5216 84.8126 99.9112 84.6772C101.3 84.5408 102.817 84.0976 103.283 83.6903C103.747 83.2839 105.337 82.9513 106.814 82.9513C108.405 82.9513 109.5 83.4737 109.5 84.2321ZM113.079 83.5659C112.781 83.9879 112.091 84.3335 111.545 84.3335C111 84.3335 110.554 83.9879 110.554 83.5659C110.554 83.143 111.244 82.7974 112.088 82.7974C112.932 82.7974 113.377 83.143 113.079 83.5659ZM184.301 83.412C184.301 83.9188 182.879 84.3335 181.14 84.3335C179.402 84.3335 177.98 83.9188 177.98 83.412C177.98 82.9052 179.402 82.4906 181.14 82.4906C182.879 82.4906 184.301 82.9052 184.301 83.412ZM193.432 84.0266C193.045 84.3639 192.729 84.9536 192.729 85.3351C192.729 85.7175 194.09 86.2916 195.755 86.6113C197.419 86.931 200.039 86.9163 201.578 86.5781C203.815 86.087 204.132 85.7083 203.164 84.6882C202.498 83.9861 200.194 83.412 198.043 83.412C195.893 83.412 193.818 83.6885 193.432 84.0266ZM172.378 87.2711C172.042 88.0055 171.793 87.7871 171.742 86.7136C171.697 85.7424 171.945 85.1987 172.295 85.5046C172.645 85.8106 172.683 86.6058 172.378 87.2711ZM124.25 87.635C124.25 88.4376 123.687 88.9306 122.999 88.7297C122.31 88.5288 121.56 87.8728 121.331 87.2711C121.101 86.6684 121.664 86.1764 122.582 86.1764C123.499 86.1764 124.25 86.8334 124.25 87.635ZM80.5663 92.6883C80.5884 95.8452 80.2766 97.5489 79.8499 96.6035C79.4358 95.683 79.0629 93.8235 79.0218 92.4717C78.9818 91.119 79.2357 89.3572 79.5875 88.5556C79.9394 87.7539 80.2945 87.0988 80.3777 87.0988C80.4609 87.0997 80.5452 89.6143 80.5663 92.6883ZM95.8045 92.6265C94.9354 93.1177 92.5649 93.477 90.5369 93.4245L86.8495 93.3296L90.0101 92.6265C91.7485 92.2395 94.1189 91.8802 95.2778 91.8286C97.0119 91.7502 97.1046 91.8912 95.8045 92.6265ZM112.376 93.1831C112.026 93.489 111.117 93.5222 110.357 93.2559C109.516 92.9619 109.766 92.7435 110.993 92.6993C112.104 92.6597 112.725 92.8772 112.376 93.1831ZM54.7168 96.7731C54.7168 97.5333 55.1762 98.1552 55.7377 98.1552C56.2982 98.1552 56.4847 97.5333 56.1517 96.7731C55.8178 96.0129 55.3584 95.3909 55.1309 95.3909C54.9033 95.3909 54.7168 96.0129 54.7168 96.7731ZM68.1494 96.5427C67.9081 97.1767 67.0779 97.6945 66.3057 97.6945C65.5334 97.6945 64.7033 97.1767 64.462 96.5427C64.2007 95.8571 64.9477 95.3909 66.3057 95.3909C67.6637 95.3909 68.4106 95.8571 68.1494 96.5427ZM169.068 96.3741C169.451 96.9141 169.499 97.5876 169.176 97.8696C168.853 98.1516 167.827 98.1276 166.897 97.8152C165.965 97.5029 165.499 96.8293 165.86 96.3188C166.22 95.8083 166.934 95.3909 167.445 95.3909C167.956 95.3909 168.687 95.8332 169.068 96.3741ZM117.929 97.2338C117.929 97.7406 117.1 98.1488 116.085 98.1414C114.509 98.1294 114.471 97.9968 115.822 97.2338C116.691 96.7427 117.521 96.3344 117.665 96.3262C117.81 96.3188 117.929 96.727 117.929 97.2338ZM154.802 98.1552C154.802 98.662 154.594 99.0767 154.338 99.0767C154.082 99.0767 153.58 98.662 153.222 98.1552C152.864 97.6484 153.073 97.2338 153.687 97.2338C154.3 97.2338 154.802 97.6484 154.802 98.1552ZM114.483 100.555C114.133 100.861 113.224 100.894 112.464 100.628C111.623 100.334 111.873 100.115 113.1 100.071C114.211 100.031 114.832 100.249 114.483 100.555ZM119.246 100.608C118.522 100.864 117.337 100.864 116.612 100.608C115.888 100.353 116.48 100.144 117.929 100.144C119.377 100.144 119.97 100.353 119.246 100.608ZM197.402 101.938C197.081 102.391 196.136 102.763 195.301 102.763C194.466 102.763 193.783 102.417 193.783 101.995C193.783 101.572 194.066 100.979 194.413 100.676C194.76 100.373 195.704 100.347 196.514 100.619C197.323 100.89 197.723 101.484 197.402 101.938ZM85.0722 103.392C85.8318 103.658 86.741 103.625 87.0908 103.319C87.4406 103.013 86.819 102.796 85.7085 102.835C84.4812 102.88 84.2315 103.098 85.0722 103.392ZM23.6377 108.291C23.9959 108.798 23.7862 109.213 23.1731 109.213C22.5599 109.213 22.0574 108.798 22.0574 108.291C22.0574 107.784 22.266 107.37 22.522 107.37C22.778 107.37 23.2795 107.784 23.6377 108.291ZM35.2265 109.2C34.0676 109.642 31.8162 110.034 30.2223 110.07C28.6283 110.105 27.3272 109.823 27.3303 109.443C27.3335 109.063 29.5849 108.672 32.3346 108.573C35.9629 108.443 36.7562 108.615 35.2265 109.2ZM169.835 108.896C169.122 109.148 167.7 109.164 166.674 108.93C165.649 108.696 166.233 108.489 167.971 108.471C169.71 108.452 170.548 108.643 169.835 108.896ZM23.1109 111.056C23.1109 111.562 22.6368 111.977 22.0574 111.977C21.478 111.977 21.0039 111.562 21.0039 111.056C21.0039 110.549 21.478 110.134 22.0574 110.134C22.6368 110.134 23.1109 110.549 23.1109 111.056ZM37.7603 112.031C37.0017 112.441 35.9514 112.545 35.4277 112.262C34.9041 111.979 35.0959 111.411 35.8534 111.001C36.6119 110.591 37.6623 110.488 38.1859 110.771C38.7095 111.054 38.5177 111.621 37.7603 112.031ZM32.2208 112.609C31.9669 112.831 29.9368 113.211 27.7096 113.453C25.1558 113.73 24.0454 113.571 24.7028 113.024C25.2759 112.546 26.6929 111.985 27.8518 111.776C29.0107 111.567 30.572 111.578 31.3211 111.8C32.0701 112.023 32.4758 112.387 32.2208 112.609ZM41.0209 114.699C41.0209 115.229 39.8642 115.663 38.4493 115.663C37.0344 115.663 35.5847 116.077 35.2265 116.584C34.8683 117.091 35.196 117.519 35.9545 117.533C36.731 117.55 36.4518 118.01 35.315 118.587C33.6115 119.451 33.5293 119.773 34.7883 120.65C35.609 121.222 36.8511 122.578 37.5496 123.666C38.5567 125.232 38.5346 125.849 37.4463 126.638C36.4202 127.384 35.5668 127.131 34.0697 125.639C32.2682 123.845 32.2524 123.702 33.9096 124.231C34.9242 124.555 35.7533 124.518 35.7533 124.148C35.7533 123.78 34.7872 122.951 33.6072 122.306C31.8858 121.365 30.2191 121.357 25.179 122.268C20.2927 123.151 18.6155 123.157 17.6326 122.297C16.6496 121.438 16.7666 121.161 18.1593 121.053C19.1444 120.977 20.5435 120.874 21.2672 120.823C21.9921 120.772 23.4312 119.99 24.4658 119.085C25.5077 118.174 26.9194 117.738 27.6264 118.109C28.4239 118.528 28.3607 118.193 27.4599 117.222C26.1704 115.832 26.3137 115.663 28.7768 115.663C30.296 115.663 31.5392 115.326 31.5392 114.914C31.5392 114.502 33.6726 114.068 36.2801 113.95C39.034 113.825 41.0209 114.139 41.0209 114.699ZM41.2843 118.116C40.5606 118.372 39.3753 118.372 38.6505 118.116C37.9267 117.86 38.5188 117.651 39.9674 117.651C41.416 117.651 42.0092 117.86 41.2843 118.116ZM55.2015 131.647C56.807 132.674 56.8871 133.03 55.6661 133.703C54.8549 134.152 52.4128 134.601 50.2393 134.704C48.067 134.806 46.2886 134.503 46.2886 134.03C46.2886 133.557 46.7627 133.17 47.3421 133.17C47.9216 133.17 48.3957 132.548 48.3957 131.788C48.3957 130.959 49.3681 130.406 50.8283 130.406C52.1662 130.406 54.1342 130.964 55.2015 131.647ZM44.1815 135.935C44.1815 136.442 43.679 136.856 43.0658 136.856C42.4527 136.856 42.243 136.442 42.6012 135.935C42.9594 135.428 43.4609 135.013 43.7169 135.013C43.9729 135.013 44.1815 135.428 44.1815 135.935ZM49.2195 136.998C48.9962 137.583 47.772 138.4 46.4982 138.812C45.1171 139.258 44.1815 139.201 44.1815 138.67C44.1815 138.178 45.1582 137.778 46.3507 137.778C47.5433 137.778 48.2271 137.363 47.8689 136.856C47.5107 136.349 47.7593 135.935 48.4209 135.935C49.0836 135.935 49.4418 136.414 49.2195 136.998ZM83.1622 148.509C83.1622 149.149 84.3474 150.709 85.796 151.976C87.2446 153.243 88.4298 154.945 88.4298 155.759C88.4298 156.642 88.9197 156.972 89.6467 156.58C90.3999 156.172 90.5769 156.327 90.1102 156.985C89.6972 157.57 88.9777 158.05 88.5109 158.05C88.0442 158.05 86.4271 156.491 84.9174 154.585C83.4077 152.679 82.0128 150.203 81.8168 149.08C81.6208 147.958 81.132 146.753 80.7306 146.402C80.3303 146.05 80.0163 145.314 80.0353 144.765C80.0532 144.217 80.7643 144.572 81.6156 145.556C82.4658 146.54 83.1622 147.868 83.1622 148.509ZM78.8996 151.599C79.0018 149.499 79.1124 149.447 80.148 151.006C81.0193 152.317 80.896 153.054 79.6181 154.173C78.0989 155.502 77.8071 155.327 76.309 152.192C75.4061 150.301 75.0215 148.254 75.4545 147.643C75.9444 146.953 76.724 147.927 77.5142 150.217C78.5182 153.125 78.81 153.417 78.8996 151.599ZM94.2453 158.928C94.9701 161.019 94.8996 161.076 93.3098 159.685C92.3637 158.858 91.5904 157.447 91.5904 156.549C91.5904 155.555 91.956 155.259 92.526 155.792C93.0401 156.273 93.8134 157.685 94.2453 158.928ZM88.3339 160.405C88.7617 160.174 89.22 162.068 89.3527 164.614C89.4855 167.16 89.9943 170.163 90.4831 171.288C91.0478 172.587 90.8677 174.383 89.989 176.211C89.2284 177.794 88.8028 179.262 89.044 179.473C89.2853 179.684 88.7722 179.858 87.9031 179.858C86.8664 179.858 86.2806 178.88 86.2016 177.016C86.1352 175.453 86.1795 173.346 86.3017 172.332C86.4239 171.319 86.9528 170.351 87.4764 170.182C88.001 170.013 88.4298 169.495 88.4298 169.031C88.4298 168.565 87.8377 168.29 87.1129 168.416C86.3617 168.548 85.6475 167.511 85.4504 166.001C85.2598 164.546 85.4367 162.265 85.8434 160.933C86.2501 159.6 86.8021 159.031 87.0697 159.668C87.3373 160.304 87.9062 160.636 88.3339 160.405ZM95.7139 167.264C95.7466 168.531 95.3315 170.178 94.7921 170.923C94.2527 171.669 93.4931 171.999 93.1033 171.659C92.7135 171.319 92.2721 169.782 92.1235 168.246C91.9739 166.71 92.2668 165.678 92.7746 165.953C93.2824 166.227 93.7312 165.287 93.7712 163.863C93.8365 161.586 93.9545 161.497 94.751 163.118C95.2493 164.131 95.6823 165.997 95.7139 167.264ZM106.38 206.195C106.38 212.404 106.466 218.727 106.573 220.248C106.679 221.768 106.603 225.915 106.404 229.462L106.043 235.912L105.242 230.844C104.802 228.057 104.397 222.252 104.343 217.944C104.29 213.636 104.55 206.691 104.922 202.51C105.294 198.329 105.774 194.908 105.989 194.908C106.204 194.908 106.38 199.987 106.38 206.195ZM123.916 248.525C123.58 249.26 123.33 249.041 123.28 247.968C123.234 246.996 123.483 246.453 123.833 246.759C124.182 247.065 124.22 247.86 123.916 248.525Z" fill="white"/>
</svg>
