<svg width="827" height="269" viewBox="0 0 827 269" fill="none" xmlns="http://www.w3.org/2000/svg">
<path d="M294.635 36.142C294.351 36.142 294.126 36.0947 293.96 36C293.818 35.929 293.747 35.8225 293.747 35.6805C293.747 35.4912 293.842 35.361 294.031 35.29C294.244 35.1953 294.493 35.1125 294.777 35.0415C295.345 34.8758 295.83 34.5563 296.232 34.083C296.634 33.6097 296.883 32.9943 296.978 32.237C297.167 30.7933 297.344 29.2195 297.51 27.5155C297.699 25.8115 297.865 24.0957 298.007 22.368C298.173 20.6403 298.303 19.0192 298.398 17.5045C298.398 17.3388 298.398 17.1495 298.398 16.9365C298.398 16.7235 298.398 16.5105 298.398 16.2975C298.374 15.9425 298.303 15.6585 298.185 15.4455C298.09 15.2088 297.912 14.9958 297.652 14.8065C297.321 14.5698 296.978 14.3923 296.623 14.274C296.268 14.132 295.865 14.0137 295.416 13.919C295.155 13.8717 294.942 13.7888 294.777 13.6705C294.635 13.5285 294.564 13.3628 294.564 13.1735C294.564 12.9842 294.658 12.854 294.848 12.783C295.037 12.712 295.285 12.6765 295.593 12.6765C295.901 12.6765 296.315 12.6883 296.836 12.712C297.356 12.7357 297.912 12.7712 298.504 12.8185C299.119 12.8422 299.723 12.8658 300.315 12.8895C300.906 12.9132 301.427 12.925 301.877 12.925C302.066 12.925 302.232 12.9842 302.374 13.1025C302.516 13.2208 302.61 13.3628 302.658 13.5285C302.8 13.9782 302.942 14.416 303.084 14.842C303.226 15.268 303.379 15.7177 303.545 16.191L308.87 29.2195C308.941 29.3378 309.036 29.4088 309.154 29.4325C309.272 29.4325 309.355 29.3733 309.403 29.255L315.118 16.546C315.284 15.8597 315.414 15.2562 315.509 14.7355C315.627 14.2148 315.733 13.8007 315.828 13.493C315.899 13.1853 316.053 13.0315 316.29 13.0315H317.745C318.644 12.9842 319.591 12.9132 320.585 12.8185C321.579 12.7238 322.348 12.6765 322.893 12.6765C323.082 12.6765 323.259 12.712 323.425 12.783C323.614 12.8303 323.709 12.9487 323.709 13.138C323.709 13.3273 323.638 13.4693 323.496 13.564C323.354 13.6587 323.141 13.7652 322.857 13.8835C322.668 13.9308 322.443 14.0137 322.183 14.132C321.922 14.2267 321.697 14.3213 321.508 14.416C321.011 14.629 320.632 14.9012 320.372 15.2325C320.135 15.5638 320.029 16.0372 320.053 16.6525C320.076 18.3328 320.124 19.8475 320.195 21.1965C320.266 22.5218 320.325 23.7762 320.372 24.9595C320.443 26.1192 320.526 27.3143 320.621 28.545C320.715 29.752 320.798 31.0892 320.869 32.5565C320.916 33.2192 321.165 33.7398 321.615 34.1185C322.088 34.4972 322.715 34.7812 323.496 34.9705C323.78 35.0415 324.005 35.1243 324.171 35.219C324.36 35.3137 324.455 35.4557 324.455 35.645C324.455 35.8107 324.372 35.929 324.206 36C324.064 36.071 323.863 36.1065 323.603 36.1065C323.058 36.1065 322.49 36.0947 321.899 36.071C321.307 36.0473 320.727 36.0237 320.159 36C319.615 35.9763 319.094 35.9645 318.597 35.9645C318.124 35.9645 317.639 35.9763 317.142 36C316.645 36.0237 316.136 36.0473 315.615 36.071C315.094 36.1183 314.55 36.142 313.982 36.142C313.745 36.142 313.532 36.0947 313.343 36C313.177 35.929 313.095 35.8225 313.095 35.6805C313.095 35.4912 313.177 35.3373 313.343 35.219C313.532 35.1007 313.769 35.0178 314.053 34.9705C314.858 34.8048 315.414 34.5563 315.722 34.225C316.053 33.8937 316.195 33.3375 316.148 32.5565C316.124 31.0182 316.088 29.539 316.041 28.119C315.994 26.699 315.946 25.2908 315.899 23.8945C315.852 22.4982 315.793 21.09 315.722 19.67C315.698 19.4807 315.639 19.3978 315.544 19.4215C315.473 19.4215 315.39 19.5162 315.296 19.7055L308.054 36.0355C307.959 36.2958 307.805 36.4023 307.592 36.355C307.379 36.3313 307.237 36.2248 307.166 36.0355C306.077 33.2902 304.93 30.5803 303.723 27.906C302.539 25.208 301.368 22.4745 300.208 19.7055C300.137 19.5162 300.031 19.4452 299.889 19.4925C299.77 19.5398 299.699 19.67 299.676 19.883C299.557 21.2083 299.451 22.581 299.356 24.001C299.261 25.3973 299.202 26.7937 299.179 28.19C299.155 29.5863 299.143 30.9708 299.143 32.3435C299.143 32.9825 299.344 33.5268 299.747 33.9765C300.173 34.4262 300.812 34.7575 301.664 34.9705C301.948 35.0178 302.184 35.1007 302.374 35.219C302.587 35.3137 302.693 35.4557 302.693 35.645C302.693 35.8107 302.598 35.929 302.409 36C302.22 36.071 302.007 36.1065 301.77 36.1065C301.131 36.1065 300.646 36.0947 300.315 36.071C299.983 36.0473 299.676 36.0237 299.392 36C299.108 35.9763 298.729 35.9645 298.256 35.9645C297.759 35.9645 297.285 35.9763 296.836 36C296.41 36.0237 296.007 36.0473 295.629 36.071C295.25 36.1183 294.919 36.142 294.635 36.142ZM326.269 36.1775C325.985 36.1775 325.748 36.1302 325.559 36.0355C325.37 35.9645 325.275 35.8343 325.275 35.645C325.275 35.432 325.358 35.2663 325.523 35.148C325.713 35.0297 325.949 34.9232 326.233 34.8285C326.92 34.6392 327.511 34.3552 328.008 33.9765C328.529 33.5742 328.943 33.0298 329.251 32.3435C329.843 30.9472 330.411 29.61 330.955 28.332C331.499 27.0303 332.02 25.7405 332.517 24.4625C333.014 23.1845 333.511 21.8828 334.008 20.5575C334.529 19.2322 335.049 17.8358 335.57 16.3685C335.83 15.6348 336.008 15.0668 336.102 14.6645C336.197 14.2622 336.28 13.9663 336.351 13.777C336.706 13.6823 337.037 13.5877 337.345 13.493C337.653 13.3983 337.996 13.28 338.374 13.138C338.706 12.9723 338.99 12.7593 339.226 12.499C339.463 12.2387 339.641 12.0375 339.759 11.8955C339.83 11.8482 339.901 11.8245 339.972 11.8245C340.043 11.8008 340.114 11.8482 340.185 11.9665C340.256 12.1085 340.315 12.2505 340.362 12.3925C340.41 12.5345 340.457 12.6883 340.504 12.854C341.025 14.5343 341.558 16.2383 342.102 17.966C342.67 19.67 343.226 21.3622 343.77 23.0425C344.315 24.6992 344.835 26.2967 345.332 27.835C345.853 29.3497 346.326 30.746 346.752 32.024C346.965 32.663 347.226 33.1718 347.533 33.5505C347.865 33.9292 348.22 34.225 348.598 34.438C349.001 34.6273 349.439 34.7812 349.912 34.8995C350.22 34.9705 350.456 35.0652 350.622 35.1835C350.788 35.3018 350.87 35.4675 350.87 35.6805C350.87 35.8225 350.788 35.929 350.622 36C350.48 36.071 350.291 36.1065 350.054 36.1065C349.628 36.1065 349.084 36.0947 348.421 36.071C347.782 36.0473 347.119 36.0237 346.433 36C345.747 35.9527 345.131 35.929 344.587 35.929C344.114 35.929 343.581 35.9408 342.989 35.9645C342.421 35.9882 341.842 36.0118 341.25 36.0355C340.682 36.0592 340.197 36.071 339.794 36.071C339.558 36.071 339.345 36.0355 339.155 35.9645C338.99 35.8698 338.907 35.7397 338.907 35.574C338.907 35.3847 339.002 35.2308 339.191 35.1125C339.38 34.9705 339.605 34.8758 339.865 34.8285C340.717 34.6865 341.333 34.4735 341.711 34.1895C342.09 33.8818 342.232 33.444 342.137 32.876C342.066 32.4737 341.96 32.0003 341.818 31.456C341.676 30.888 341.522 30.3082 341.356 29.7165C341.214 29.1012 341.061 28.545 340.895 28.048C340.848 27.8587 340.777 27.7285 340.682 27.6575C340.587 27.5628 340.41 27.5155 340.149 27.5155H333.759C333.594 27.5155 333.464 27.5747 333.369 27.693C333.274 27.7877 333.203 27.9415 333.156 28.1545C333.061 28.4622 332.943 28.8172 332.801 29.2195C332.683 29.5982 332.552 30.0005 332.41 30.4265C332.292 30.8288 332.174 31.2075 332.055 31.5625C331.961 31.9175 331.89 32.2252 331.842 32.4855C331.724 33.1245 331.831 33.6333 332.162 34.012C332.517 34.367 333.12 34.651 333.972 34.864C334.611 35.0297 334.931 35.2782 334.931 35.6095C334.931 35.7515 334.848 35.8698 334.682 35.9645C334.54 36.0355 334.327 36.071 334.043 36.071C333.499 36.071 332.931 36.0473 332.339 36C331.748 35.9763 331.097 35.9645 330.387 35.9645C329.677 35.9645 328.979 36 328.292 36.071C327.63 36.142 326.955 36.1775 326.269 36.1775ZM334.718 25.8825H339.652C339.984 25.8825 340.149 25.8115 340.149 25.6695C340.149 25.5985 340.138 25.5393 340.114 25.492C340.114 25.4447 340.102 25.3737 340.078 25.279L337.593 17.0785C337.499 16.7472 337.416 16.5815 337.345 16.5815C337.298 16.5815 337.215 16.7353 337.096 17.043L334.114 25.279C334.067 25.3973 334.043 25.492 334.043 25.563C334.043 25.6813 334.103 25.7642 334.221 25.8115C334.363 25.8588 334.529 25.8825 334.718 25.8825ZM354.695 36.213C354.388 36.213 354.139 36.1657 353.95 36.071C353.784 35.9763 353.701 35.8462 353.701 35.6805C353.701 35.4912 353.796 35.3492 353.985 35.2545C354.198 35.1362 354.459 35.0415 354.766 34.9705C355.666 34.8048 356.317 34.4853 356.719 34.012C357.121 33.5387 357.322 32.9115 357.322 32.1305V27.0895C357.322 26.4032 357.204 25.7878 356.967 25.2435C356.731 24.6755 356.506 24.2022 356.293 23.8235L351.855 16.83C351.666 16.5223 351.418 16.1792 351.11 15.8005C350.826 15.3982 350.506 15.0313 350.151 14.7C349.796 14.3687 349.394 14.1438 348.944 14.0255C348.66 13.9308 348.424 13.8362 348.234 13.7415C348.069 13.6232 347.986 13.4693 347.986 13.28C347.986 13.1143 348.069 12.996 348.234 12.925C348.4 12.8303 348.601 12.783 348.838 12.783C349.69 12.783 350.53 12.8185 351.358 12.8895C352.21 12.9368 353.11 12.9605 354.056 12.9605C354.743 12.9605 355.394 12.9368 356.009 12.8895C356.648 12.8185 357.299 12.783 357.961 12.783C358.198 12.783 358.423 12.8303 358.636 12.925C358.849 12.996 358.955 13.1143 358.955 13.28C358.955 13.4693 358.849 13.6232 358.636 13.7415C358.423 13.8598 358.174 13.9545 357.89 14.0255C357.346 14.1438 356.932 14.2858 356.648 14.4515C356.388 14.6172 356.257 14.8657 356.257 15.197C356.257 15.552 356.399 15.9662 356.683 16.4395L360.198 22.652C360.506 23.2437 360.766 23.5395 360.979 23.5395C361.097 23.5395 361.216 23.4685 361.334 23.3265C361.452 23.1845 361.606 22.9597 361.795 22.652C362.363 21.729 362.884 20.8178 363.357 19.9185C363.831 19.0192 364.34 18.037 364.884 16.972C365.026 16.688 365.132 16.4158 365.203 16.1555C365.298 15.8715 365.345 15.623 365.345 15.41C365.345 14.9367 365.156 14.6053 364.777 14.416C364.399 14.203 364.008 14.0728 363.606 14.0255C363.369 14.0018 363.121 13.919 362.86 13.777C362.6 13.635 362.47 13.4693 362.47 13.28C362.47 13.1143 362.576 12.996 362.789 12.925C363.002 12.854 363.239 12.8185 363.499 12.8185C364.138 12.8185 364.695 12.8422 365.168 12.8895C365.665 12.9368 366.209 12.9605 366.801 12.9605C367.464 12.9605 368.091 12.925 368.682 12.854C369.298 12.783 369.889 12.7475 370.457 12.7475C370.741 12.7475 370.978 12.783 371.167 12.854C371.38 12.925 371.487 13.0552 371.487 13.2445C371.487 13.4575 371.345 13.6232 371.061 13.7415C370.777 13.8362 370.469 13.9308 370.138 14.0255C369.475 14.2148 368.907 14.5343 368.434 14.984C367.961 15.4337 367.499 16.0135 367.049 16.7235C366.647 17.3862 366.268 18.0015 365.913 18.5695C365.558 19.1138 365.215 19.6463 364.884 20.167C364.576 20.664 364.257 21.1847 363.925 21.729C363.594 22.2497 363.239 22.8295 362.86 23.4685C362.624 23.8708 362.434 24.2377 362.292 24.569C362.174 24.9003 362.079 25.2435 362.008 25.5985C361.937 25.9535 361.902 26.3677 361.902 26.841V32.095C361.902 32.9707 362.103 33.6215 362.505 34.0475C362.908 34.4498 363.559 34.7575 364.458 34.9705C364.789 35.0415 365.05 35.1243 365.239 35.219C365.452 35.3137 365.558 35.4675 365.558 35.6805C365.558 35.8225 365.464 35.9408 365.274 36.0355C365.109 36.1302 364.884 36.1775 364.6 36.1775C364.032 36.1775 363.464 36.1538 362.896 36.1065C362.328 36.0592 361.772 36.0237 361.227 36C360.707 35.9527 360.186 35.929 359.665 35.929C359.145 35.929 358.612 35.9527 358.068 36C357.524 36.0237 356.967 36.0592 356.399 36.1065C355.831 36.1775 355.263 36.213 354.695 36.213ZM384.285 37.349C383.741 37.349 383.173 37.2662 382.581 37.1005C382.013 36.9348 381.528 36.7218 381.126 36.4615C380.747 36.2012 380.558 35.9408 380.558 35.6805C380.558 35.4202 380.617 35.1362 380.735 34.8285C380.877 34.5208 381.055 34.2605 381.268 34.0475C381.481 33.8108 381.694 33.6925 381.907 33.6925C382.12 33.6925 382.309 33.7517 382.475 33.87C382.664 33.9883 382.841 34.1303 383.007 34.296C383.338 34.6273 383.717 34.9823 384.143 35.361C384.593 35.716 385.113 35.8935 385.705 35.8935C386.51 35.8935 387.243 35.6805 387.906 35.2545C388.569 34.8285 389.113 34.2368 389.539 33.4795C389.965 32.6985 390.178 31.7873 390.178 30.746C390.178 29.7993 390.036 28.9355 389.752 28.1545C389.468 27.3735 389.054 26.7463 388.51 26.273C387.965 25.7997 387.291 25.563 386.486 25.563C385.989 25.563 385.539 25.6458 385.137 25.8115C384.758 25.9535 384.439 26.0955 384.179 26.2375C384.013 26.3322 383.824 26.3322 383.611 26.2375C383.421 26.1192 383.338 25.9772 383.362 25.8115C383.48 25.4092 383.658 25.0778 383.895 24.8175C384.155 24.5335 384.427 24.3205 384.711 24.1785C385.255 23.8945 385.776 23.5868 386.273 23.2555C386.794 22.9242 387.255 22.5573 387.658 22.155C388.084 21.7527 388.415 21.303 388.652 20.806C388.912 20.309 389.042 19.7528 389.042 19.1375C389.042 18.3092 388.758 17.5873 388.19 16.972C387.646 16.3567 386.936 16.049 386.06 16.049C385.303 16.049 384.664 16.2028 384.143 16.5105C383.622 16.7945 383.196 17.1377 382.865 17.54C382.534 17.9187 382.273 18.2618 382.084 18.5695C381.895 18.8535 381.741 18.9955 381.623 18.9955C381.481 18.9955 381.327 18.9127 381.161 18.747C380.995 18.5577 380.913 18.3683 380.913 18.179C380.913 17.9423 381.043 17.5755 381.303 17.0785C381.563 16.5815 381.978 16.0727 382.546 15.552C383.114 15.0313 383.835 14.5935 384.711 14.2385C385.61 13.8598 386.699 13.6705 387.977 13.6705C388.853 13.6705 389.669 13.848 390.427 14.203C391.184 14.5343 391.799 15.0195 392.273 15.6585C392.746 16.2738 392.983 17.0075 392.983 17.8595C392.983 18.4038 392.829 19.0192 392.521 19.7055C392.237 20.3682 391.764 21.0072 391.101 21.6225C390.462 22.2142 389.61 22.6875 388.545 23.0425C388.474 23.0662 388.439 23.1135 388.439 23.1845C388.439 23.2318 388.486 23.2555 388.581 23.2555C389.74 23.2555 390.77 23.4922 391.669 23.9655C392.568 24.4388 393.278 25.0897 393.799 25.918C394.343 26.7463 394.616 27.7167 394.616 28.829C394.616 30.1307 394.32 31.3022 393.728 32.3435C393.16 33.3848 392.379 34.2842 391.385 35.0415C390.415 35.7752 389.314 36.3432 388.084 36.7455C386.853 37.1478 385.587 37.349 384.285 37.349ZM405.539 36.497C404.19 36.497 403.018 36.1657 402.024 35.503C401.03 34.8403 400.202 33.9647 399.539 32.876C398.9 31.7637 398.415 30.5448 398.084 29.2195C397.776 27.8942 397.622 26.5807 397.622 25.279C397.622 23.93 397.776 22.5692 398.084 21.1965C398.415 19.8238 398.912 18.5695 399.575 17.4335C400.237 16.2738 401.101 15.3508 402.166 14.6645C403.231 13.9545 404.486 13.5995 405.929 13.5995C407.278 13.5995 408.45 13.9308 409.444 14.5935C410.438 15.2562 411.254 16.1437 411.893 17.256C412.556 18.3447 413.041 19.5517 413.349 20.877C413.68 22.1787 413.846 23.4685 413.846 24.7465C413.846 26.0955 413.692 27.4563 413.384 28.829C413.077 30.2017 412.58 31.4678 411.893 32.6275C411.231 33.7872 410.379 34.722 409.337 35.432C408.296 36.142 407.03 36.497 405.539 36.497ZM406.107 35.1125C406.935 35.1125 407.598 34.6628 408.095 33.7635C408.592 32.8405 408.947 31.6453 409.16 30.178C409.396 28.687 409.515 27.0895 409.515 25.3855C409.515 24.1312 409.432 22.8887 409.266 21.658C409.101 20.4037 408.828 19.2795 408.45 18.2855C408.095 17.2915 407.657 16.4987 407.136 15.907C406.616 15.2917 406.012 14.984 405.326 14.984C404.521 14.984 403.87 15.4455 403.373 16.3685C402.9 17.2678 402.545 18.4512 402.308 19.9185C402.095 21.3858 401.989 22.9715 401.989 24.6755C401.989 25.9298 402.072 27.1842 402.237 28.4385C402.427 29.6692 402.687 30.7933 403.018 31.811C403.373 32.8287 403.799 33.6333 404.296 34.225C404.817 34.8167 405.42 35.1125 406.107 35.1125ZM423.939 30.107C423.726 30.107 423.619 30.0005 423.619 29.7875C423.619 29.1722 423.678 28.6752 423.797 28.2965C423.915 27.9178 424.092 27.7167 424.329 27.693C425.56 27.5037 426.826 27.3262 428.128 27.1605C429.453 26.9712 430.731 26.8173 431.962 26.699C432.151 26.699 432.269 26.7463 432.317 26.841C432.388 26.912 432.423 27.0067 432.423 27.125C432.423 27.764 432.376 28.2492 432.281 28.5805C432.186 28.8882 431.997 29.0657 431.713 29.113C430.506 29.2787 429.216 29.4562 427.844 29.6455C426.495 29.8348 425.193 29.9887 423.939 30.107ZM443.086 43.1C440.081 43.1 438.578 42.4492 438.578 41.1475C438.578 40.6978 438.779 40.26 439.181 39.834C439.56 39.4317 439.915 39.2305 440.246 39.2305C440.53 39.2305 440.802 39.2897 441.063 39.408C441.323 39.55 441.572 39.7748 441.808 40.0825C442.211 40.5558 442.53 40.9227 442.767 41.183C443.003 41.467 443.264 41.609 443.548 41.609C444.305 41.609 444.873 41.1357 445.252 40.189C445.63 39.2423 445.82 37.7987 445.82 35.858V16.4395C445.82 15.6585 445.654 15.1023 445.323 14.771C444.991 14.4397 444.376 14.1793 443.477 13.99C442.861 13.8717 442.554 13.6232 442.554 13.2445C442.554 13.1025 442.637 12.996 442.802 12.925C442.968 12.8303 443.157 12.783 443.37 12.783C443.962 12.783 444.518 12.7948 445.039 12.8185C445.583 12.8422 446.116 12.8658 446.636 12.8895C447.157 12.9132 447.666 12.925 448.163 12.925C448.636 12.925 449.109 12.9132 449.583 12.8895C450.056 12.8658 450.553 12.8422 451.074 12.8185C451.594 12.7948 452.139 12.783 452.707 12.783C452.943 12.783 453.133 12.8303 453.275 12.925C453.417 12.996 453.488 13.1143 453.488 13.28C453.488 13.4693 453.405 13.6232 453.239 13.7415C453.097 13.8362 452.872 13.919 452.565 13.99C451.642 14.2267 451.05 14.5107 450.79 14.842C450.529 15.1497 450.399 15.694 450.399 16.475V33.4085C450.399 34.1658 450.257 34.9587 449.973 35.787C449.713 36.5917 449.358 37.3727 448.908 38.13C448.482 38.911 448.033 39.6092 447.559 40.2245C446.92 41.0528 446.222 41.7392 445.465 42.2835C444.707 42.8278 443.915 43.1 443.086 43.1ZM467.381 36.497C465.18 36.497 463.345 36.1065 461.878 35.3255C460.411 34.5445 459.31 33.4558 458.577 32.0595C457.843 30.6632 457.476 29.0302 457.476 27.1605V16.7945C457.476 16.0845 457.31 15.481 456.979 14.984C456.671 14.487 456.257 14.1675 455.737 14.0255C455.027 13.8362 454.672 13.5758 454.672 13.2445C454.672 13.1025 454.766 12.996 454.956 12.925C455.145 12.8303 455.382 12.783 455.666 12.783C456.328 12.783 457.015 12.8067 457.725 12.854C458.458 12.9013 459.168 12.925 459.855 12.925C460.47 12.925 461.168 12.9132 461.949 12.8895C462.754 12.8422 463.44 12.8185 464.008 12.8185C464.292 12.8185 464.517 12.854 464.683 12.925C464.872 12.996 464.967 13.1143 464.967 13.28C464.967 13.5167 464.813 13.6942 464.505 13.8125C464.221 13.9072 463.878 14.0373 463.476 14.203C463.144 14.345 462.825 14.6408 462.517 15.0905C462.233 15.5165 462.091 16.1082 462.091 16.8655V26.415C462.091 28.119 462.375 29.5272 462.943 30.6395C463.511 31.7282 464.268 32.5328 465.215 33.0535C466.162 33.5742 467.227 33.8345 468.41 33.8345C470.658 33.8345 472.327 33.1245 473.416 31.7045C474.504 30.2845 475.049 28.2492 475.049 25.5985C475.049 25.0068 475.049 24.3087 475.049 23.504C475.049 22.6993 475.037 21.871 475.013 21.019C475.013 20.1433 475.001 19.315 474.978 18.534C474.978 17.611 474.907 16.8655 474.765 16.2975C474.646 15.7058 474.469 15.2443 474.232 14.913C473.995 14.558 473.664 14.2858 473.238 14.0965C473.001 14.0018 472.717 13.8953 472.386 13.777C472.078 13.6587 471.925 13.5048 471.925 13.3155C471.925 13.1262 472.019 12.996 472.209 12.925C472.398 12.854 472.646 12.8185 472.954 12.8185C473.711 12.8185 474.291 12.8303 474.694 12.854C475.12 12.8777 475.605 12.8895 476.149 12.8895C476.551 12.8895 476.906 12.8895 477.214 12.8895C477.545 12.8658 477.865 12.8422 478.173 12.8185C478.48 12.7948 478.835 12.783 479.238 12.783C479.522 12.783 479.746 12.8185 479.912 12.8895C480.078 12.9368 480.161 13.0552 480.161 13.2445C480.161 13.5758 479.817 13.8243 479.131 13.99C478.397 14.1793 477.889 14.5225 477.605 15.0195C477.321 15.5165 477.155 16.1673 477.108 16.972C477.013 18.8417 476.942 20.5575 476.895 22.1195C476.871 23.6815 476.847 25.2553 476.824 26.841C476.8 28.7343 476.362 30.4147 475.51 31.882C474.682 33.3257 473.558 34.4617 472.138 35.29C470.718 36.0947 469.132 36.497 467.381 36.497ZM504.485 36.639C504.201 36.639 503.727 36.4615 503.065 36.1065C502.402 35.7515 501.728 35.1362 501.041 34.2605C500.639 33.8108 500.142 33.2665 499.55 32.6275C498.982 31.9648 498.343 31.243 497.633 30.462C496.947 29.681 496.225 28.8645 495.468 28.0125C494.71 27.1605 493.953 26.3085 493.196 25.4565C492.462 24.6045 491.74 23.788 491.03 23.007C490.32 22.226 489.669 21.516 489.078 20.877C488.486 20.2143 487.989 19.6463 487.587 19.173C487.492 19.0547 487.386 18.96 487.267 18.889C487.173 18.7943 487.09 18.747 487.019 18.747C486.924 18.747 486.853 18.8298 486.806 18.9955C486.758 19.1612 486.735 19.315 486.735 19.457C486.735 20.5457 486.735 21.8355 486.735 23.3265C486.758 24.8175 486.77 26.3322 486.77 27.8705C486.77 29.4088 486.77 30.8288 486.77 32.1305C486.77 32.8642 486.983 33.4677 487.409 33.941C487.835 34.4143 488.51 34.7575 489.433 34.9705C489.717 35.0178 489.953 35.1007 490.143 35.219C490.356 35.3137 490.462 35.4557 490.462 35.645C490.462 35.8107 490.368 35.929 490.178 36C489.989 36.071 489.776 36.1065 489.539 36.1065C488.9 36.1065 488.391 36.0947 488.013 36.071C487.634 36.0473 487.291 36.0237 486.983 36C486.676 35.9763 486.285 35.9645 485.812 35.9645C485.315 35.9645 484.865 35.9763 484.463 36C484.084 36.0237 483.741 36.0473 483.433 36.071C483.126 36.1183 482.83 36.142 482.546 36.142C482.309 36.142 482.096 36.0947 481.907 36C481.717 35.929 481.623 35.8225 481.623 35.6805C481.623 35.4912 481.706 35.3492 481.871 35.2545C482.061 35.1362 482.309 35.0297 482.617 34.935C483.232 34.7457 483.682 34.4025 483.966 33.9055C484.273 33.3848 484.463 32.7695 484.534 32.0595C484.628 31.1602 484.723 29.9887 484.818 28.545C484.912 27.0777 484.995 25.4328 485.066 23.6105C485.161 21.7882 485.208 19.9067 485.208 17.966C485.208 16.7353 484.889 15.8478 484.25 15.3035C483.634 14.7592 482.853 14.3213 481.907 13.99C481.741 13.9427 481.528 13.848 481.268 13.706C481.007 13.564 480.877 13.3865 480.877 13.1735C480.877 12.9605 480.972 12.8185 481.161 12.7475C481.351 12.6765 481.552 12.641 481.765 12.641C482.262 12.641 482.759 12.6528 483.256 12.6765C483.753 12.7002 484.25 12.7238 484.747 12.7475C485.267 12.7475 485.8 12.7593 486.344 12.783C486.912 12.8067 487.516 12.8185 488.155 12.8185C488.368 12.8185 488.522 12.8658 488.616 12.9605C488.735 13.0315 488.841 13.138 488.936 13.28C489.314 13.7297 489.8 14.2977 490.391 14.984C490.983 15.6467 491.622 16.3922 492.308 17.2205C493.018 18.0252 493.752 18.8772 494.509 19.7765C495.29 20.6758 496.059 21.5752 496.817 22.4745C497.598 23.3738 498.343 24.2377 499.053 25.066C499.763 25.8707 500.402 26.6162 500.97 27.3025C501.562 27.9652 502.047 28.5095 502.426 28.9355C502.52 29.0302 502.627 29.1485 502.745 29.2905C502.887 29.4325 503.006 29.5035 503.1 29.5035C503.29 29.5035 503.396 29.3023 503.42 28.9C503.42 28.2847 503.42 27.5037 503.42 26.557C503.42 25.5867 503.42 24.5217 503.42 23.362C503.443 22.1787 503.443 20.9717 503.42 19.741C503.42 18.5103 503.408 17.327 503.384 16.191C503.361 15.5993 503.112 15.1378 502.639 14.8065C502.189 14.4515 501.621 14.203 500.935 14.061C500.651 13.99 500.379 13.9072 500.118 13.8125C499.882 13.6942 499.763 13.5285 499.763 13.3155C499.763 13.1498 499.882 13.0315 500.118 12.9605C500.379 12.8895 500.615 12.854 500.828 12.854C501.302 12.854 501.692 12.854 502 12.854C502.331 12.854 502.639 12.8658 502.923 12.8895C503.207 12.8895 503.503 12.8895 503.81 12.8895C504.331 12.8895 504.757 12.8895 505.088 12.8895C505.42 12.8658 505.775 12.8422 506.153 12.8185C506.556 12.7948 507.076 12.783 507.715 12.783C507.999 12.783 508.224 12.8303 508.39 12.925C508.579 12.996 508.674 13.1025 508.674 13.2445C508.674 13.5995 508.331 13.848 507.644 13.99C506.816 14.1557 506.224 14.3805 505.869 14.6645C505.538 14.9485 505.36 15.4218 505.337 16.0845C505.337 16.6762 505.325 17.4335 505.301 18.3565C505.301 19.2795 505.289 20.2853 505.266 21.374C505.242 22.4627 505.207 23.575 505.159 24.711C505.136 25.847 505.112 26.9593 505.088 28.048C505.088 29.1367 505.088 30.1188 505.088 30.9945C505.088 31.5625 505.112 32.1423 505.159 32.734C505.207 33.3257 505.254 33.8582 505.301 34.3315C505.372 34.7812 505.408 35.1007 505.408 35.29C505.408 35.8107 505.325 36.1657 505.159 36.355C504.994 36.5443 504.769 36.639 504.485 36.639ZM510.758 36.1775C510.498 36.1775 510.285 36.1302 510.119 36.0355C509.977 35.9408 509.906 35.8225 509.906 35.6805C509.906 35.3728 510.214 35.148 510.829 35.006C511.681 34.793 512.285 34.5327 512.64 34.225C513.018 33.8937 513.208 33.3375 513.208 32.5565V16.475C513.208 15.6703 513.042 15.1023 512.711 14.771C512.403 14.4397 511.811 14.1793 510.936 13.99C510.604 13.919 510.368 13.8243 510.226 13.706C510.084 13.564 510.013 13.422 510.013 13.28C510.013 13.1143 510.084 12.996 510.226 12.925C510.391 12.8303 510.604 12.783 510.865 12.783C511.551 12.783 512.202 12.7948 512.817 12.8185C513.456 12.8422 514.071 12.8658 514.663 12.8895C515.255 12.9132 515.87 12.925 516.509 12.925C517.598 12.925 518.746 12.9132 519.953 12.8895C521.183 12.8658 522.284 12.854 523.254 12.854C524.035 12.8303 524.674 12.7948 525.171 12.7475C525.692 12.7002 525.999 12.6765 526.094 12.6765C526.26 12.6765 526.425 12.712 526.591 12.783C526.78 12.854 526.887 12.996 526.911 13.209C527.005 13.99 527.124 14.7592 527.266 15.5165C527.408 16.2738 527.479 16.9365 527.479 17.5045C527.479 17.7175 527.419 17.8832 527.301 18.0015C527.206 18.0962 527.1 18.1435 526.982 18.1435C526.863 18.1435 526.757 18.108 526.662 18.037C526.567 17.9423 526.485 17.8122 526.414 17.6465C526.224 17.1022 526.047 16.6288 525.881 16.2265C525.715 15.8242 525.526 15.5165 525.313 15.3035C525.005 14.9722 524.65 14.7118 524.248 14.5225C523.846 14.3332 523.361 14.2385 522.793 14.2385H519.491C519.065 14.2385 518.675 14.3687 518.32 14.629C517.965 14.8657 517.787 15.2088 517.787 15.6585V22.6165C517.787 22.8768 517.858 23.078 518 23.22C518.166 23.362 518.355 23.433 518.568 23.433H521.834C522.473 23.433 522.923 23.2555 523.183 22.9005C523.467 22.5455 523.704 22.0603 523.893 21.445C524.059 20.9717 524.284 20.735 524.568 20.735C524.686 20.735 524.792 20.806 524.887 20.948C524.982 21.0663 525.029 21.232 525.029 21.445C525.005 21.6817 524.982 21.9657 524.958 22.297C524.934 22.6283 524.911 22.9597 524.887 23.291C524.887 23.6223 524.887 23.9182 524.887 24.1785C524.887 24.4625 524.887 24.782 524.887 25.137C524.911 25.492 524.923 25.847 524.923 26.202C524.946 26.5333 524.97 26.8173 524.994 27.054C525.017 27.3143 524.994 27.5155 524.923 27.6575C524.875 27.7995 524.781 27.8705 524.639 27.8705C524.26 27.8705 523.988 27.5392 523.822 26.8765C523.633 26.2138 523.408 25.7168 523.148 25.3855C522.887 25.0542 522.532 24.8885 522.083 24.8885H518.746C518.438 24.8885 518.201 24.9477 518.036 25.066C517.87 25.1843 517.787 25.4092 517.787 25.7405V32.4855C517.787 33.2665 517.953 33.8108 518.284 34.1185C518.615 34.4262 519.124 34.58 519.811 34.58H522.722C523.313 34.58 523.846 34.5208 524.319 34.4025C524.816 34.2842 525.242 34.0948 525.597 33.8345C525.999 33.5505 526.354 33.1718 526.662 32.6985C526.993 32.2015 527.313 31.6572 527.621 31.0655C527.715 30.8762 527.81 30.7578 527.905 30.7105C527.999 30.6395 528.118 30.604 528.26 30.604C528.378 30.6277 528.461 30.6987 528.508 30.817C528.579 30.9353 528.615 31.0655 528.615 31.2075C528.615 31.5388 528.555 31.9648 528.437 32.4855C528.319 33.0062 528.165 33.5505 527.976 34.1185C527.81 34.6628 527.656 35.1717 527.514 35.645C527.443 35.8107 527.348 35.929 527.23 36C527.112 36.0947 526.97 36.142 526.804 36.142C526.236 36.142 525.502 36.1302 524.603 36.1065C523.727 36.1065 522.769 36.0947 521.728 36.071C520.686 36.0473 519.621 36.0237 518.533 36C517.444 36 516.403 36 515.409 36C514.912 36 514.403 36.0118 513.882 36.0355C513.385 36.0592 512.876 36.0828 512.356 36.1065C511.835 36.1538 511.302 36.1775 510.758 36.1775ZM552.893 36.142C552.727 36.142 552.396 36.1302 551.899 36.1065C551.426 36.0828 550.858 36.0592 550.195 36.0355C549.556 36.0118 548.893 36 548.207 36C547.544 35.9763 546.941 35.9645 546.396 35.9645C545.852 35.9645 545.225 35.9763 544.515 36C543.829 36 543.142 36 542.456 36C541.77 36.0237 541.178 36.0473 540.681 36.071C540.184 36.0947 539.876 36.1065 539.758 36.1065C539.687 36.1065 539.545 36.0355 539.332 35.8935C539.143 35.7515 539.048 35.6213 539.048 35.503C539.048 35.3137 539.095 35.1835 539.19 35.1125C539.285 35.0178 539.379 34.9232 539.474 34.8285L544.941 28.8645C546.148 27.5628 547.083 26.202 547.745 24.782C548.432 23.3383 548.775 21.8118 548.775 20.2025C548.775 19.1138 548.479 18.2263 547.887 17.54C547.296 16.83 546.527 16.475 545.58 16.475C544.704 16.475 543.876 16.7235 543.095 17.2205C542.338 17.7175 541.71 18.2973 541.213 18.96C541.095 19.102 540.953 19.244 540.787 19.386C540.622 19.528 540.432 19.599 540.219 19.599C540.077 19.599 539.959 19.5162 539.864 19.3505C539.77 19.1848 539.722 18.9718 539.722 18.7115C539.722 18.3565 539.912 17.9068 540.29 17.3625C540.669 16.7945 541.19 16.2265 541.852 15.6585C542.539 15.0905 543.32 14.6172 544.195 14.2385C545.095 13.8362 546.053 13.635 547.071 13.635C548.278 13.635 549.307 13.9072 550.159 14.4515C551.011 14.9722 551.662 15.6822 552.112 16.5815C552.562 17.4572 552.786 18.4512 552.786 19.5635C552.786 20.2025 552.644 20.9125 552.36 21.6935C552.1 22.4508 551.757 23.1963 551.331 23.93C550.905 24.64 550.467 25.2672 550.017 25.8115C549.662 26.2138 549.201 26.699 548.633 27.267C548.089 27.8113 547.509 28.3912 546.893 29.0065C546.278 29.5982 545.698 30.1662 545.154 30.7105C544.61 31.2312 544.16 31.669 543.805 32.024C543.474 32.3553 543.308 32.5447 543.308 32.592C543.308 32.6867 543.485 32.7577 543.84 32.805C544.266 32.8523 544.763 32.8878 545.331 32.9115C545.899 32.9352 546.456 32.947 547 32.947C547.592 32.947 548.171 32.9352 548.739 32.9115C549.331 32.8878 549.899 32.8523 550.443 32.805C551.035 32.7577 551.52 32.6748 551.899 32.5565C552.278 32.4145 552.609 32.2133 552.893 31.953C553.201 31.669 553.473 31.2903 553.709 30.817C553.78 30.6513 553.899 30.4857 554.064 30.32C554.254 30.1307 554.455 30.036 554.668 30.036C554.834 30.036 554.94 30.107 554.987 30.249C555.035 30.3673 555.047 30.4975 555.023 30.6395C554.881 31.0892 554.703 31.6217 554.49 32.237C554.301 32.8287 554.124 33.4085 553.958 33.9765C553.792 34.5208 553.686 34.9705 553.638 35.3255C553.615 35.6095 553.496 35.8225 553.283 35.9645C553.094 36.0828 552.964 36.142 552.893 36.142ZM560.976 37.065C560.692 37.065 560.455 36.9585 560.266 36.7455C560.1 36.5562 560.018 36.3195 560.018 36.0355C560.018 35.8935 560.124 35.645 560.337 35.29C560.55 34.935 560.739 34.6155 560.905 34.3315L569.958 18.1435C570.052 18.0015 570.064 17.895 569.993 17.824C569.922 17.753 569.78 17.7175 569.567 17.7175H561.26C560.668 17.7175 560.183 17.824 559.805 18.037C559.426 18.2263 559.047 18.5932 558.669 19.1375C558.598 19.2322 558.491 19.4097 558.349 19.67C558.207 19.9067 558.03 20.1315 557.817 20.3445C557.627 20.5338 557.438 20.6285 557.249 20.6285C557.107 20.6285 556.988 20.5693 556.894 20.451C556.823 20.3327 556.787 20.2143 556.787 20.096C556.787 19.9303 556.823 19.6937 556.894 19.386C556.988 19.0547 557.047 18.8298 557.071 18.7115C557.213 18.0015 557.367 17.2323 557.533 16.404C557.722 15.5757 557.828 14.8657 557.852 14.274C557.852 14.061 557.923 13.919 558.065 13.848C558.231 13.777 558.361 13.7415 558.456 13.7415C558.669 13.7652 559.083 13.8243 559.698 13.919C560.313 14.0137 561 14.0847 561.757 14.132C562.254 14.132 562.81 14.132 563.426 14.132C564.041 14.132 564.656 14.1438 565.272 14.1675C565.887 14.1675 566.443 14.1675 566.94 14.1675C567.91 14.1675 568.822 14.1675 569.674 14.1675C570.549 14.1438 571.307 14.1202 571.946 14.0965C572.608 14.0728 573.093 14.0492 573.401 14.0255C573.496 14.0255 573.567 14.0965 573.614 14.2385C573.685 14.3805 573.721 14.5343 573.721 14.7C573.721 14.8183 573.65 15.0077 573.508 15.268C573.366 15.5283 573.188 15.8123 572.975 16.12C572.786 16.4277 572.585 16.7472 572.372 17.0785L561.722 36C561.603 36.213 561.461 36.4378 561.296 36.6745C561.154 36.9348 561.047 37.065 560.976 37.065ZM575.236 41.6445C574.692 41.6445 574.42 41.467 574.42 41.112C574.42 40.97 574.479 40.8635 574.597 40.7925C574.716 40.7215 574.893 40.6505 575.13 40.5795C575.721 40.4375 576.254 40.2245 576.727 39.9405C577.201 39.6565 577.579 39.2778 577.863 38.8045C578.147 38.3548 578.289 37.8223 578.289 37.207C578.289 36.8283 578.147 36.4852 577.863 36.1775C577.579 35.8935 577.236 35.716 576.834 35.645C576.408 35.574 576.041 35.3728 575.733 35.0415C575.426 34.7102 575.272 34.296 575.272 33.799C575.272 33.231 575.508 32.7577 575.982 32.379C576.455 31.9767 576.988 31.7755 577.579 31.7755C578.573 31.7755 579.378 32.1187 579.993 32.805C580.632 33.4677 580.952 34.3315 580.952 35.3965C580.952 36.3195 580.774 37.1597 580.419 37.917C580.064 38.698 579.603 39.3607 579.035 39.905C578.467 40.4493 577.851 40.8753 577.189 41.183C576.526 41.4907 575.875 41.6445 575.236 41.6445ZM605.866 36.142C605.7 36.142 605.369 36.1302 604.872 36.1065C604.398 36.0828 603.83 36.0592 603.168 36.0355C602.529 36.0118 601.866 36 601.18 36C600.517 35.9763 599.913 35.9645 599.369 35.9645C598.825 35.9645 598.198 35.9763 597.488 36C596.801 36 596.115 36 595.429 36C594.742 36.0237 594.151 36.0473 593.654 36.071C593.157 36.0947 592.849 36.1065 592.731 36.1065C592.66 36.1065 592.518 36.0355 592.305 35.8935C592.115 35.7515 592.021 35.6213 592.021 35.503C592.021 35.3137 592.068 35.1835 592.163 35.1125C592.257 35.0178 592.352 34.9232 592.447 34.8285L597.914 28.8645C599.121 27.5628 600.055 26.202 600.718 24.782C601.404 23.3383 601.748 21.8118 601.748 20.2025C601.748 19.1138 601.452 18.2263 600.86 17.54C600.268 16.83 599.499 16.475 598.553 16.475C597.677 16.475 596.849 16.7235 596.068 17.2205C595.31 17.7175 594.683 18.2973 594.186 18.96C594.068 19.102 593.926 19.244 593.76 19.386C593.594 19.528 593.405 19.599 593.192 19.599C593.05 19.599 592.932 19.5162 592.837 19.3505C592.742 19.1848 592.695 18.9718 592.695 18.7115C592.695 18.3565 592.884 17.9068 593.263 17.3625C593.642 16.7945 594.162 16.2265 594.825 15.6585C595.511 15.0905 596.292 14.6172 597.168 14.2385C598.067 13.8362 599.026 13.635 600.044 13.635C601.251 13.635 602.28 13.9072 603.132 14.4515C603.984 14.9722 604.635 15.6822 605.085 16.5815C605.534 17.4572 605.759 18.4512 605.759 19.5635C605.759 20.2025 605.617 20.9125 605.333 21.6935C605.073 22.4508 604.73 23.1963 604.304 23.93C603.878 24.64 603.44 25.2672 602.99 25.8115C602.635 26.2138 602.174 26.699 601.606 27.267C601.061 27.8113 600.481 28.3912 599.866 29.0065C599.251 29.5982 598.671 30.1662 598.127 30.7105C597.582 31.2312 597.133 31.669 596.778 32.024C596.446 32.3553 596.281 32.5447 596.281 32.592C596.281 32.6867 596.458 32.7577 596.813 32.805C597.239 32.8523 597.736 32.8878 598.304 32.9115C598.872 32.9352 599.428 32.947 599.973 32.947C600.564 32.947 601.144 32.9352 601.712 32.9115C602.304 32.8878 602.872 32.8523 603.416 32.805C604.008 32.7577 604.493 32.6748 604.872 32.5565C605.25 32.4145 605.582 32.2133 605.866 31.953C606.173 31.669 606.445 31.2903 606.682 30.817C606.753 30.6513 606.871 30.4857 607.037 30.32C607.226 30.1307 607.428 30.036 607.641 30.036C607.806 30.036 607.913 30.107 607.96 30.249C608.007 30.3673 608.019 30.4975 607.996 30.6395C607.854 31.0892 607.676 31.6217 607.463 32.237C607.274 32.8287 607.096 33.4085 606.931 33.9765C606.765 34.5208 606.658 34.9705 606.611 35.3255C606.587 35.6095 606.469 35.8225 606.256 35.9645C606.067 36.0828 605.937 36.142 605.866 36.142ZM617.499 36.497C616.15 36.497 614.978 36.1657 613.984 35.503C612.99 34.8403 612.162 33.9647 611.499 32.876C610.86 31.7637 610.375 30.5448 610.044 29.2195C609.736 27.8942 609.582 26.5807 609.582 25.279C609.582 23.93 609.736 22.5692 610.044 21.1965C610.375 19.8238 610.872 18.5695 611.535 17.4335C612.197 16.2738 613.061 15.3508 614.126 14.6645C615.191 13.9545 616.446 13.5995 617.889 13.5995C619.238 13.5995 620.41 13.9308 621.404 14.5935C622.398 15.2562 623.214 16.1437 623.853 17.256C624.516 18.3447 625.001 19.5517 625.309 20.877C625.64 22.1787 625.806 23.4685 625.806 24.7465C625.806 26.0955 625.652 27.4563 625.344 28.829C625.037 30.2017 624.54 31.4678 623.853 32.6275C623.191 33.7872 622.339 34.722 621.297 35.432C620.256 36.142 618.99 36.497 617.499 36.497ZM618.067 35.1125C618.895 35.1125 619.558 34.6628 620.055 33.7635C620.552 32.8405 620.907 31.6453 621.12 30.178C621.356 28.687 621.475 27.0895 621.475 25.3855C621.475 24.1312 621.392 22.8887 621.226 21.658C621.061 20.4037 620.788 19.2795 620.41 18.2855C620.055 17.2915 619.617 16.4987 619.096 15.907C618.576 15.2917 617.972 14.984 617.286 14.984C616.481 14.984 615.83 15.4455 615.333 16.3685C614.86 17.2678 614.505 18.4512 614.268 19.9185C614.055 21.3858 613.949 22.9715 613.949 24.6755C613.949 25.9298 614.032 27.1842 614.197 28.4385C614.387 29.6692 614.647 30.7933 614.978 31.811C615.333 32.8287 615.759 33.6333 616.256 34.225C616.777 34.8167 617.38 35.1125 618.067 35.1125ZM642.267 36.142C642.101 36.142 641.77 36.1302 641.273 36.1065C640.8 36.0828 640.232 36.0592 639.569 36.0355C638.93 36.0118 638.267 36 637.581 36C636.918 35.9763 636.315 35.9645 635.77 35.9645C635.226 35.9645 634.599 35.9763 633.889 36C633.203 36 632.516 36 631.83 36C631.144 36.0237 630.552 36.0473 630.055 36.071C629.558 36.0947 629.25 36.1065 629.132 36.1065C629.061 36.1065 628.919 36.0355 628.706 35.8935C628.517 35.7515 628.422 35.6213 628.422 35.503C628.422 35.3137 628.469 35.1835 628.564 35.1125C628.659 35.0178 628.753 34.9232 628.848 34.8285L634.315 28.8645C635.522 27.5628 636.457 26.202 637.119 24.782C637.806 23.3383 638.149 21.8118 638.149 20.2025C638.149 19.1138 637.853 18.2263 637.261 17.54C636.67 16.83 635.901 16.475 634.954 16.475C634.078 16.475 633.25 16.7235 632.469 17.2205C631.712 17.7175 631.084 18.2973 630.587 18.96C630.469 19.102 630.327 19.244 630.161 19.386C629.996 19.528 629.806 19.599 629.593 19.599C629.451 19.599 629.333 19.5162 629.238 19.3505C629.144 19.1848 629.096 18.9718 629.096 18.7115C629.096 18.3565 629.286 17.9068 629.664 17.3625C630.043 16.7945 630.564 16.2265 631.226 15.6585C631.913 15.0905 632.694 14.6172 633.569 14.2385C634.469 13.8362 635.427 13.635 636.445 13.635C637.652 13.635 638.681 13.9072 639.533 14.4515C640.385 14.9722 641.036 15.6822 641.486 16.5815C641.936 17.4572 642.16 18.4512 642.16 19.5635C642.16 20.2025 642.018 20.9125 641.734 21.6935C641.474 22.4508 641.131 23.1963 640.705 23.93C640.279 24.64 639.841 25.2672 639.391 25.8115C639.036 26.2138 638.575 26.699 638.007 27.267C637.463 27.8113 636.883 28.3912 636.267 29.0065C635.652 29.5982 635.072 30.1662 634.528 30.7105C633.984 31.2312 633.534 31.669 633.179 32.024C632.848 32.3553 632.682 32.5447 632.682 32.592C632.682 32.6867 632.859 32.7577 633.214 32.805C633.64 32.8523 634.137 32.8878 634.705 32.9115C635.273 32.9352 635.83 32.947 636.374 32.947C636.966 32.947 637.545 32.9352 638.113 32.9115C638.705 32.8878 639.273 32.8523 639.817 32.805C640.409 32.7577 640.894 32.6748 641.273 32.5565C641.652 32.4145 641.983 32.2133 642.267 31.953C642.575 31.669 642.847 31.2903 643.083 30.817C643.154 30.6513 643.273 30.4857 643.438 30.32C643.628 30.1307 643.829 30.036 644.042 30.036C644.208 30.036 644.314 30.107 644.361 30.249C644.409 30.3673 644.421 30.4975 644.397 30.6395C644.255 31.0892 644.077 31.6217 643.864 32.237C643.675 32.8287 643.498 33.4085 643.332 33.9765C643.166 34.5208 643.06 34.9705 643.012 35.3255C642.989 35.6095 642.87 35.8225 642.657 35.9645C642.468 36.0828 642.338 36.142 642.267 36.142ZM654.397 36.5325C652.906 36.5325 651.604 36.2367 650.492 35.645C649.38 35.0533 648.516 34.2132 647.901 33.1245C647.285 32.0122 646.978 30.6868 646.978 29.1485C646.978 27.8468 647.12 26.6635 647.404 25.5985C647.711 24.5098 648.09 23.5513 648.54 22.723C648.989 21.8947 649.439 21.1847 649.889 20.593C650.362 19.9777 650.752 19.5043 651.06 19.173C651.628 18.534 652.362 17.8595 653.261 17.1495C654.184 16.4158 655.237 15.7177 656.421 15.055C657.604 14.3923 658.87 13.848 660.219 13.422C660.55 13.3273 660.846 13.2918 661.107 13.3155C661.391 13.3155 661.533 13.3865 661.533 13.5285C661.485 13.7652 661.355 13.9545 661.142 14.0965C660.929 14.2385 660.669 14.3805 660.361 14.5225C658.965 15.1615 657.781 15.8952 656.811 16.7235C655.864 17.5282 654.977 18.5458 654.149 19.7765C653.817 20.3208 653.415 21.0782 652.942 22.0485C652.468 22.9952 652.054 24.072 651.699 25.279C651.368 26.486 651.202 27.7285 651.202 29.0065C651.226 30.3082 651.427 31.4087 651.806 32.308C652.208 33.2073 652.705 33.8937 653.297 34.367C653.912 34.8167 654.527 35.0415 655.143 35.0415C655.947 35.0652 656.634 34.722 657.202 34.012C657.77 33.2783 658.054 32.2015 658.054 30.7815C658.054 30.0478 657.923 29.3852 657.663 28.7935C657.403 28.1782 657.06 27.6812 656.634 27.3025C656.231 26.9238 655.782 26.7345 655.285 26.7345C654.882 26.7345 654.539 26.77 654.255 26.841C653.971 26.8883 653.687 26.983 653.403 27.125C653.024 27.2907 652.8 27.2788 652.729 27.0895C652.658 26.8765 652.729 26.6517 652.942 26.415C653.107 26.2493 653.249 26.1073 653.368 25.989C653.486 25.8707 653.628 25.7523 653.794 25.634C654.149 25.3737 654.681 25.0778 655.391 24.7465C656.101 24.3915 656.776 24.214 657.415 24.214C658.267 24.214 659.059 24.427 659.793 24.853C660.55 25.279 661.154 25.8588 661.604 26.5925C662.077 27.3025 662.314 28.1072 662.314 29.0065C662.314 30.0005 662.112 30.9472 661.71 31.8465C661.308 32.7458 660.74 33.5505 660.006 34.2605C659.296 34.9705 658.456 35.5267 657.486 35.929C656.539 36.3313 655.509 36.5325 654.397 36.5325Z" fill="#29311E"/>
<g clip-path="url(#clip0_6513_34)">
<path d="M266.305 111.549C266.305 116.689 262.924 119.376 256.385 119.376C246.949 119.376 235.827 116.924 224.942 114.732C215.505 112.775 205.597 110.571 194.711 108.862C180.927 114.001 168.828 122.806 160.122 130.893C145.607 144.603 139.564 155.117 139.328 163.204C139.328 164.43 139.811 166.139 140.059 167.118C144.171 167.365 148.518 167.848 153.112 169.074C157.707 170.3 160.122 172.505 159.886 174.709C159.651 175.935 157.707 177.161 155.54 177.161C150.462 177.161 143.452 173.731 138.362 169.57C130.622 169.817 122.164 172.257 112.727 176.914C103.29 181.558 95.562 186.214 89.0231 191.354C67.0161 207.268 52.7493 228.556 52.7493 244.458C52.7493 256.211 60.0065 262.564 74.2733 262.812C92.8994 263.059 115.872 253.759 136.183 240.297C145.124 234.427 153.595 228.061 160.122 222.426C164.233 219.243 166.921 216.346 167.887 217.572C169.1 218.798 166.896 221.2 163.02 224.383C156.493 230.005 147.056 237.845 138.598 242.984C118.523 256.694 93.853 267.208 73.5426 267.208C63.1398 267.208 54.1983 265.004 46.6933 260.36C39.2008 255.715 35.5722 248.607 35.8075 238.823C24.4386 238.092 15.4971 233.436 9.20586 225.114C3.18706 216.531 0.0414295 206.748 0.0414295 195.738C-0.206258 171.266 10.1966 149.235 31.2376 130.633C45.0214 118.15 61.2202 109.345 79.3633 103.957C97.7417 98.5702 116.368 95.8828 135.464 95.8828C151.911 95.8828 171.738 98.5702 184.556 101.27C194.959 98.3349 211.888 95.8828 228.087 95.8828C254.453 95.8828 266.293 102.731 266.293 111.549H266.305ZM256.15 116.936C260.745 116.936 263.643 115.462 263.643 111.797C263.643 104.7 252.274 100.044 236.075 100.044C223.257 100.044 210.922 102.496 201.981 105.183L226.168 111.301C230.997 112.527 236.323 113.753 242.366 114.967C248.41 116.193 253.004 116.924 256.15 116.924V116.936ZM36.0799 235.876C37.2936 213.361 59.5359 191.094 80.5769 180.567C95.0914 173.471 114.671 167.353 136.678 167.105C134.498 164.418 131.848 159.514 131.848 153.396C131.848 147.278 134.028 137.247 143.452 126.472C150.227 118.881 160.382 111.301 174.166 106.162C164.246 104.936 151.676 104.205 138.127 104.205C106.2 104.205 65.0965 113.753 37.2812 136.021C16.0049 153.643 4.63603 176.406 4.88372 197.199C4.88372 217.51 16.9709 233.907 36.0799 235.863V235.876Z" fill="#29311E"/>
<path d="M212.171 204.628C211.329 204.801 210.698 204.888 210.264 204.888C209.162 204.888 208.369 204.677 207.862 204.256C207.354 203.835 206.97 203.365 206.722 202.857C204.53 198.039 201.905 194.522 198.858 192.33C195.812 190.126 191.675 189.036 186.437 189.036C184.406 189.036 182.461 189.333 180.604 189.928C178.833 190.435 177.26 191.24 175.91 192.343C174.56 193.358 173.458 194.621 172.616 196.145C171.86 197.668 171.476 199.365 171.476 201.222C171.476 205.198 173.123 208.455 176.418 210.993C179.799 213.532 184.74 216.108 191.254 218.734C199.366 221.954 205.335 225.545 209.137 229.52C213.026 233.409 214.97 238.239 214.97 243.985C214.97 247.453 214.425 250.71 213.323 253.757C212.308 256.717 210.66 259.342 208.382 261.621C206.177 263.825 203.304 265.559 199.762 266.822C196.208 268.098 191.948 268.729 186.957 268.729C181.718 268.729 176.938 268.184 172.628 267.082C168.405 265.98 164.814 264.543 161.854 262.772C161.594 259.218 161.222 255.788 160.714 252.493C160.207 249.199 159.612 245.893 158.943 242.598C159.538 242.338 160.256 242.214 161.098 242.214C162.114 242.214 162.869 242.475 163.377 242.982C163.971 243.403 164.479 244.122 164.9 245.137C167.018 251.23 169.718 255.713 173.012 258.587C176.393 261.46 181.087 262.896 187.093 262.896C189.793 262.896 192.158 262.512 194.189 261.757C196.22 261.002 197.905 259.936 199.267 258.587C200.617 257.237 201.632 255.713 202.313 254.017C202.995 252.32 203.329 250.512 203.329 248.555C203.329 244.159 201.806 240.691 198.771 238.152C195.812 235.614 191.539 233.335 185.966 231.304C182.337 229.954 179.031 228.554 176.071 227.118C173.111 225.595 170.572 223.861 168.467 221.916C166.349 219.972 164.702 217.731 163.526 215.192C162.423 212.566 161.878 209.483 161.878 205.928C161.878 202.795 162.423 199.885 163.526 197.173C164.714 194.386 166.362 191.971 168.467 189.94C170.671 187.909 173.284 186.299 176.331 185.123C179.378 183.934 182.796 183.352 186.598 183.352C190.4 183.352 194.375 183.735 198.004 184.491C201.645 185.246 205.744 186.522 210.301 188.293C210.475 190.832 210.685 193.581 210.933 196.541C211.267 199.414 211.701 202.126 212.196 204.665L212.171 204.628Z" fill="#29311E"/>
<path d="M305.96 187.116C306.134 186.781 306.295 186.434 306.468 186.1C306.716 185.766 307.1 185.506 307.607 185.345C308.115 185.171 308.796 185.047 309.638 184.961C310.48 184.787 311.669 184.713 313.193 184.713H315.855C316.957 184.626 318.134 184.589 319.41 184.589C320.673 184.502 321.948 184.416 323.212 184.341C324.561 184.255 325.788 184.168 326.89 184.094C327.063 184.936 327.15 185.617 327.15 186.125C327.15 187.475 326.729 188.193 325.887 188.28C322.84 188.701 320.821 189.295 319.806 190.051C318.79 190.732 318.283 191.661 318.283 192.837C318.283 192.924 318.32 194.063 318.406 196.268C318.58 198.385 318.79 201.977 319.038 207.054C319.286 212.045 319.583 218.733 319.93 227.105C320.351 235.476 320.821 245.879 321.329 258.326C321.416 259.936 321.961 261.112 322.976 261.88C323.992 262.648 326.06 263.279 329.193 263.787C329.614 263.874 329.912 264.122 330.085 264.555C330.333 264.889 330.469 265.31 330.469 265.818C330.469 266.326 330.382 267.007 330.221 267.849C327.261 267.676 324.561 267.515 322.109 267.341C319.744 267.255 317.54 267.218 315.521 267.218H312.35C311.087 267.304 309.725 267.341 308.288 267.341C306.939 267.428 305.589 267.515 304.226 267.602C302.876 267.688 301.688 267.775 300.672 267.862C300.499 267.019 300.412 266.338 300.412 265.831C300.412 264.481 300.833 263.8 301.675 263.8C305.056 263.118 307.335 262.45 308.524 261.768C309.787 261.087 310.431 259.948 310.431 258.338C310.431 258.078 310.344 256.518 310.171 253.644C310.084 250.771 309.923 247.254 309.663 243.118C309.49 238.969 309.279 234.486 309.031 229.668C308.858 224.851 308.648 220.318 308.4 216.095C308.226 211.785 308.065 208.107 307.892 205.06C307.719 201.927 307.632 200.032 307.632 199.351L279.866 266.487C279.532 267.242 279.185 267.8 278.851 268.134C278.603 268.555 278.219 268.766 277.711 268.766C277.117 268.766 276.733 268.728 276.572 268.642L245.512 197.32C245.425 198.162 245.302 200.243 245.128 203.537C245.041 206.757 244.868 210.596 244.62 215.079C244.447 219.563 244.236 224.293 243.989 229.297C243.741 234.288 243.481 238.895 243.233 243.13C243.06 247.353 242.899 250.907 242.726 253.793C242.639 256.666 242.602 258.189 242.602 258.363C242.602 260.988 245.475 262.809 251.221 263.824C252.063 263.911 252.484 264.592 252.484 265.855C252.484 266.363 252.398 267.044 252.237 267.886C249.958 267.713 247.716 267.552 245.512 267.379C243.32 267.292 241.363 267.255 239.679 267.255C238.329 267.255 236.509 267.292 234.23 267.379C231.951 267.552 229.796 267.713 227.765 267.886C227.592 267.044 227.518 266.363 227.518 265.855C227.518 264.666 227.939 263.998 228.781 263.824C231.06 263.403 232.88 262.809 234.23 262.053C235.667 261.211 236.471 259.985 236.645 258.375C236.645 257.607 236.732 255.502 236.905 252.034C237.078 248.48 237.239 244.294 237.413 239.477C237.673 234.659 237.92 229.532 238.168 224.12C238.416 218.708 238.639 213.717 238.8 209.147C239.047 204.491 239.221 200.689 239.307 197.729C239.481 194.682 239.568 193.122 239.568 193.035C239.568 191.685 239.023 190.707 237.92 190.113C236.905 189.431 234.923 188.849 231.964 188.342C231.121 188.255 230.7 187.537 230.7 186.187C230.7 185.679 230.787 184.998 230.96 184.156C232.063 184.242 233.289 184.329 234.639 184.403C236.075 184.49 237.475 184.577 238.825 184.651C240.261 184.651 241.611 184.688 242.887 184.775H245.933C247.456 184.775 248.633 184.862 249.487 185.023C250.33 185.109 251.011 185.233 251.518 185.406C252.026 185.58 252.361 185.828 252.534 186.162C252.794 186.496 253.005 186.843 253.166 187.177L280.3 250.499L306.034 187.177L305.96 187.116Z" fill="#29311E"/>
<path d="M364.34 189.92V222.405H384.118C385.814 222.405 386.991 221.6 387.672 219.99C388.428 218.293 389.022 216.262 389.443 213.897C389.691 212.794 390.459 212.249 391.722 212.249C391.969 212.249 392.316 212.287 392.737 212.373C393.158 212.46 393.493 212.547 393.753 212.633C393.579 214.491 393.418 216.609 393.245 218.974C393.158 221.34 393.121 223.42 393.121 225.191C393.121 226.628 393.158 228.411 393.245 230.516C393.332 232.547 393.493 234.876 393.753 237.489C393.072 237.662 392.44 237.749 391.846 237.749C390.496 237.749 389.691 237.204 389.431 236.102C389.01 233.736 388.415 231.742 387.66 230.133C386.979 228.436 385.802 227.594 384.105 227.594H364.328V257.539C364.328 259.31 365.467 260.499 367.746 261.093C370.024 261.688 373.789 261.985 379.028 261.985H386C388.452 261.985 390.57 261.651 392.341 260.97C394.199 260.202 395.809 259.236 397.158 258.047C398.595 256.771 399.858 255.298 400.96 253.601C402.063 251.904 403.115 250.047 404.131 248.016C404.379 247.421 405.023 247.124 406.038 247.124C406.459 247.124 406.88 247.248 407.301 247.508C407.809 247.768 408.28 248.016 408.701 248.276C407.933 249.886 407.264 251.83 406.67 254.109C406.162 256.313 405.654 258.418 405.146 260.449C404.639 262.48 404.094 264.214 403.499 265.651C402.992 267.087 402.31 267.806 401.468 267.806C400.787 267.806 399.821 267.769 398.546 267.682C397.282 267.595 395.883 267.509 394.36 267.434C392.923 267.434 391.449 267.397 389.926 267.31C388.403 267.224 387.09 267.187 386 267.187H358.234C355.782 267.187 353.157 267.224 350.37 267.31C347.584 267.484 344.921 267.645 342.382 267.818C342.209 266.976 342.135 266.295 342.135 265.787C342.135 264.598 342.556 263.929 343.398 263.756C346.606 263.162 348.897 262.53 350.247 261.849C351.683 261.168 352.401 259.991 352.401 258.295V193.698C352.401 192.001 351.77 190.862 350.494 190.267C349.318 189.586 346.94 188.917 343.398 188.236C342.556 188.063 342.135 187.345 342.135 186.081V185.066C342.221 184.731 342.308 184.385 342.382 184.05C346.011 184.298 349.058 184.471 351.51 184.558C353.962 184.645 356.154 184.682 358.098 184.682H383.077C386.879 184.682 390.174 184.558 392.973 184.298C395.759 184.05 397.617 183.914 398.558 183.914C399.66 183.914 400.378 184.632 400.713 186.069C401.134 187.419 401.468 189.078 401.728 191.023C401.976 192.967 402.273 195.035 402.62 197.24C402.954 199.444 403.598 201.302 404.527 202.825C403.846 203.333 403.091 203.58 402.248 203.58C401.146 203.58 400.428 203.197 400.094 202.441C399.078 200.237 398.112 198.379 397.171 196.856C396.242 195.246 395.14 193.933 393.877 192.918C392.688 191.902 391.214 191.147 389.443 190.639C387.746 190.131 385.641 189.883 383.102 189.883H364.34V189.92Z" fill="#29311E"/>
<path d="M450.486 230.145H441.099V258.059C441.099 259.917 441.941 261.192 443.638 261.861C445.409 262.542 448.071 263.087 451.626 263.508C452.641 263.682 453.149 264.4 453.149 265.663C453.149 266.258 453.062 266.976 452.901 267.818C450.623 267.645 447.824 267.484 444.529 267.31C441.322 267.224 438.152 267.186 435.018 267.186C432.826 267.186 430.287 267.224 427.414 267.31C424.541 267.484 421.829 267.645 419.303 267.818C419.129 266.976 419.055 266.295 419.055 265.787C419.055 264.598 419.525 263.929 420.454 263.756C423.662 263.248 425.903 262.654 427.179 261.985C428.529 261.217 429.21 260.003 429.21 258.307V193.71C429.21 192.1 428.578 190.923 427.303 190.156C426.114 189.313 423.748 188.669 420.207 188.248C419.364 188.162 418.943 187.443 418.943 186.094C418.943 185.586 419.03 184.905 419.203 184.062C421.742 184.236 424.355 184.397 427.067 184.57C429.767 184.657 432.356 184.694 434.795 184.694H451.911C461.038 184.694 467.924 186.725 472.58 190.787C477.224 194.763 479.552 200.175 479.552 207.035C479.552 208.893 479.218 210.837 478.537 212.869C477.942 214.9 476.976 216.881 475.614 218.838C474.351 220.782 472.654 222.603 470.537 224.299C468.506 225.909 466.103 227.222 463.304 228.238L484.481 257.675C486.091 259.88 487.862 261.403 489.807 262.245C491.751 263.087 493.572 263.731 495.256 264.152C496.011 264.326 496.395 264.908 496.395 265.923C496.395 266.604 496.308 267.36 496.147 268.202C494.203 268.028 491.838 267.867 489.051 267.694C486.265 267.607 483.689 267.57 481.323 267.57C479.552 267.57 477.732 266.802 475.874 265.279C474.103 263.756 472.407 261.812 470.797 259.446L450.511 230.132L450.486 230.145ZM447.824 224.943C453.743 224.943 458.301 223.717 461.521 221.265C464.728 218.726 466.338 214.33 466.338 208.063C466.338 205.438 466.004 203.023 465.323 200.831C464.642 198.639 463.552 196.732 462.029 195.122C460.592 193.512 458.648 192.249 456.196 191.32C453.83 190.391 450.907 189.92 447.44 189.92H441.099V224.943H447.824Z" fill="#29311E"/>
<path d="M549.82 236.99H521.546L513.434 257.424C513.013 258.439 512.803 259.282 512.803 259.963C512.803 261.734 515.379 263.009 520.543 263.765C521.138 263.851 521.509 264.099 521.682 264.533C521.93 264.867 522.066 265.288 522.066 265.796C522.066 266.304 521.98 266.985 521.806 267.827C519.528 267.653 517.113 267.492 514.586 267.319C512.047 267.232 509.558 267.195 507.106 267.195C505.422 267.195 503.688 267.232 501.905 267.319C500.134 267.406 498.276 267.579 496.332 267.827C496.158 267.146 496.084 266.477 496.084 265.796C496.084 265.201 496.171 264.694 496.332 264.272C496.579 263.851 497.05 263.591 497.731 263.505C500.357 263.084 502.301 262.576 503.564 261.981C504.914 261.3 505.892 260.285 506.474 258.935L537.027 185.335C537.621 183.898 538.426 183.18 539.442 183.18C539.776 183.18 540.284 183.266 540.965 183.427L571.653 259.306C572.161 260.495 573.3 261.424 575.071 262.093C576.842 262.774 578.576 263.232 580.273 263.492C580.781 263.666 581.165 263.913 581.412 264.26C581.747 264.52 581.92 265.016 581.92 265.783C581.92 266.291 581.833 266.972 581.672 267.814C578.973 267.641 576.31 267.48 573.684 267.307C571.059 267.22 568.607 267.183 566.328 267.183C564.049 267.183 561.25 267.22 558.216 267.307C555.17 267.48 552.433 267.641 549.981 267.814C549.807 266.972 549.733 266.291 549.733 265.783C549.733 265.016 549.857 264.52 550.117 264.26C550.451 263.926 550.749 263.752 551.009 263.752C553.201 263.331 554.984 262.861 556.334 262.353C557.684 261.758 558.365 260.916 558.365 259.814C558.365 259.306 558.192 258.675 557.857 257.907L549.869 236.965L549.82 236.99ZM547.789 231.788L535.999 200.704L523.701 231.788H547.789Z" fill="#29311E"/>
<path d="M610.491 258.056C610.491 259.492 611.123 260.508 612.398 261.102C613.661 261.697 615.395 261.994 617.6 261.994H631.421C633.873 261.994 635.99 261.697 637.761 261.102C639.532 260.421 641.056 259.492 642.331 258.316C643.594 257.127 644.697 255.69 645.625 254.006C646.641 252.235 647.533 250.241 648.288 248.037C648.536 247.356 649.043 247.021 649.811 247.021C650.232 247.021 650.653 247.145 651.074 247.405C651.582 247.579 652.09 247.789 652.598 248.037C652.003 250.576 651.409 253.288 650.827 256.161C650.319 258.948 649.861 262.13 649.427 265.672C649.341 266.601 649.093 267.195 648.672 267.443C648.251 267.691 647.743 267.827 647.149 267.827C645.712 267.827 643.892 267.703 641.7 267.443C639.582 267.27 637.724 267.183 636.114 267.183H604.423C602.478 267.183 600.026 267.22 597.066 267.307C594.106 267.48 591.27 267.641 588.571 267.815C588.397 266.973 588.311 266.291 588.311 265.784C588.311 264.595 588.732 263.926 589.574 263.753C593.041 263.158 595.407 262.527 596.67 261.845C597.933 261.09 598.577 259.938 598.577 258.415V193.694C598.577 191.998 597.983 190.821 596.806 190.14C595.617 189.385 593.339 188.741 589.958 188.233C589.537 188.146 589.202 187.936 588.942 187.601C588.769 187.18 588.682 186.71 588.682 186.202C588.682 185.607 588.769 184.889 588.942 184.047C591.815 184.22 594.651 184.381 597.438 184.555C600.224 184.641 602.59 184.678 604.534 184.678C607.407 184.678 610.454 184.641 613.661 184.555C616.869 184.381 619.742 184.22 622.281 184.047C622.454 184.889 622.529 185.57 622.529 186.078C622.529 187.514 622.058 188.282 621.129 188.357C617.5 188.778 614.788 189.409 613.017 190.264C611.333 191.019 610.479 192.468 610.479 194.574V258.019L610.491 258.056Z" fill="#29311E"/>
<path d="M730.138 228.369C730.138 215.341 726.881 205.693 720.379 199.439C713.951 193.099 704.527 189.928 692.105 189.928H681.071V257.435C681.071 258.277 681.281 258.996 681.702 259.59C682.124 260.185 682.842 260.643 683.857 260.99C684.873 261.324 686.272 261.584 688.043 261.745C689.814 261.918 692.056 262.005 694.768 262.005C701.282 262.005 706.768 261.237 711.252 259.726C715.735 258.116 719.363 255.875 722.15 253.002C724.936 250.042 726.967 246.487 728.231 242.339C729.494 238.19 730.138 233.546 730.138 228.382V228.369ZM743.451 225.954C743.451 230.945 742.559 235.899 740.788 240.803C739.104 245.707 736.479 250.153 732.924 254.129C729.457 258.017 725.023 261.188 719.611 263.64C714.286 266.005 708.032 267.194 700.849 267.194H674.854C672.65 267.194 670.16 267.231 667.374 267.318C664.587 267.491 661.875 267.652 659.262 267.826C659.089 266.984 659.002 266.302 659.002 265.795C659.002 264.606 659.472 263.937 660.401 263.764C663.535 263.008 665.764 262.278 667.126 261.609C668.476 260.928 669.157 259.838 669.157 258.315V193.718C669.157 192.021 668.525 190.845 667.25 190.163C665.987 189.482 663.696 188.851 660.401 188.256C659.894 188.17 659.51 187.922 659.262 187.501C659.089 187.08 659.002 186.609 659.002 186.101C659.002 185.594 659.089 184.912 659.262 184.07C661.033 184.244 662.556 184.368 663.832 184.454C665.182 184.454 666.457 184.491 667.634 184.578C668.823 184.665 669.962 184.702 671.052 184.702H700.725C707.821 184.702 714.038 185.804 719.363 187.996C724.775 190.201 729.258 193.16 732.8 196.876C736.355 200.603 739.017 204.95 740.788 209.941C742.559 214.932 743.451 220.257 743.451 225.929V225.954Z" fill="#29311E"/>
<path d="M794.001 236.99H765.728L757.616 257.424C757.195 258.439 756.985 259.282 756.985 259.963C756.985 261.734 759.561 263.009 764.712 263.765C765.307 263.851 765.678 264.099 765.852 264.533C766.112 264.867 766.236 265.288 766.236 265.796C766.236 266.304 766.149 266.985 765.976 267.827C763.697 267.653 761.282 267.492 758.743 267.319C756.204 267.232 753.715 267.195 751.263 267.195C749.566 267.195 747.845 267.232 746.062 267.319C744.291 267.406 742.433 267.579 740.489 267.827C740.315 267.146 740.229 266.477 740.229 265.796C740.229 265.201 740.315 264.694 740.489 264.272C740.736 263.851 741.207 263.591 741.888 263.505C744.514 263.084 746.458 262.576 747.721 261.981C749.071 261.3 750.049 260.285 750.631 258.935L781.184 185.335C781.778 183.898 782.583 183.18 783.599 183.18C783.933 183.18 784.441 183.266 785.122 183.427L815.81 259.306C816.318 260.495 817.457 261.424 819.228 262.093C820.999 262.774 822.733 263.232 824.43 263.492C824.938 263.666 825.322 263.913 825.569 264.26C825.904 264.52 826.077 265.016 826.077 265.783C826.077 266.291 825.99 266.972 825.817 267.814C823.117 267.641 820.454 267.48 817.829 267.307C815.203 267.22 812.764 267.183 810.473 267.183C808.182 267.183 805.407 267.22 802.361 267.307C799.314 267.48 796.565 267.641 794.125 267.814C793.952 266.972 793.865 266.291 793.865 265.783C793.865 265.016 793.989 264.52 794.249 264.26C794.583 263.926 794.881 263.752 795.141 263.752C797.333 263.331 799.116 262.861 800.466 262.353C801.816 261.758 802.497 260.916 802.497 259.814C802.497 259.306 802.324 258.675 801.989 257.907L794.001 236.965V236.99ZM791.97 231.788L780.18 200.704L767.883 231.788H791.97Z" fill="#29311E"/>
<path d="M301.127 159.332V69.8672H372.263V90.0413H324.335V105.014H365.922V124.049H324.335V139.145H372.263V159.319H301.127V159.332Z" fill="#29311E"/>
<path d="M385.328 159.332V69.8672H419.558C444.03 69.8672 469.393 76.0841 469.393 114.538C469.393 152.991 444.03 159.332 419.558 159.332H385.328ZM408.413 139.034H419.571C434.915 139.034 446.321 138.526 446.321 114.538C446.321 90.5491 434.779 90.0413 419.571 90.0413H408.413V139.021V139.034Z" fill="#29311E"/>
<path d="M521.333 160.989C494.955 160.989 478.607 142.846 478.607 115.303C478.607 86.113 496.862 68.0938 524.764 68.0938C548.468 68.0938 566.858 81.667 569.905 101.854H546.201C544.678 93.4817 536.306 88.0202 526.04 88.0202C511.203 88.0202 502.46 98.0391 502.46 114.919C502.46 130.783 510.064 140.802 527.315 140.802C540.504 140.802 548.864 135.093 549.756 126.337H528.207V108.702H561.05C568.53 108.702 573.1 113.012 573.1 120.752V159.329H550.152V153.236L554.586 137.124H548.752C549.384 141.062 548.369 160.976 521.371 160.976L521.333 160.989Z" fill="#29311E"/>
<path d="M587.404 159.332V69.8672H658.54V90.0413H610.613V105.014H652.199V124.049H610.613V139.145H658.54V159.319H587.404V159.332Z" fill="#29311E"/>
</g>
<defs>
<clipPath id="clip0_6513_34">
<rect width="826.037" height="200.627" fill="white" transform="translate(0 68.0938)"/>
</clipPath>
</defs>
</svg>
