<svg width="575" height="140" viewBox="0 0 575 140" fill="none" xmlns="http://www.w3.org/2000/svg">
<mask id="mask0_44183_1866" style="mask-type:luminance" maskUnits="userSpaceOnUse" x="0" y="0" width="575" height="140">
<path d="M574.33 0H0V139.469H574.33V0Z" fill="white"/>
</mask>
<g mask="url(#mask0_44183_1866)">
<path d="M185.157 30.209C185.157 33.7822 182.806 35.6501 178.26 35.6501C171.699 35.6501 163.966 33.9455 156.398 32.4217C149.837 31.0613 142.948 29.5291 135.379 28.3411C125.795 31.9135 117.383 38.0345 111.33 43.6563C101.238 53.1871 97.0362 60.496 96.8721 66.1179C96.8721 66.9701 97.208 68.1582 97.3804 68.8387C100.239 69.0104 103.262 69.3462 106.456 70.1985C109.651 71.0508 111.33 72.5836 111.166 74.1158C111.002 74.968 109.651 75.8203 108.144 75.8203C104.613 75.8203 99.7395 73.4359 96.2005 70.5433C90.819 70.715 84.9383 72.4112 78.3769 75.6486C71.8155 78.877 66.4423 82.1137 61.8959 85.6868C46.5948 96.7497 36.6753 111.548 36.6753 122.603C36.6753 130.773 41.7212 135.19 51.6406 135.362C64.5911 135.534 80.5636 129.069 94.6855 119.71C100.902 115.63 106.792 111.204 111.33 107.287C114.188 105.074 116.057 103.06 116.729 103.913C117.572 104.765 116.04 106.435 113.345 108.647C108.807 112.556 102.245 118.006 96.3646 121.578C82.4068 131.109 65.2541 138.418 51.1326 138.418C43.8997 138.418 37.6828 136.886 32.4647 133.658C27.2553 130.428 24.7324 125.487 24.896 118.686C16.9914 118.178 10.7745 114.941 6.40028 109.156C2.2155 103.189 0.0283944 96.3882 0.0283944 88.7344C-0.143819 71.7223 7.08912 56.4071 21.7186 43.4756C31.3023 34.7978 42.565 28.6768 55.1796 24.9313C67.9578 21.1866 80.9084 19.3184 94.1856 19.3184C105.621 19.3184 119.406 21.1866 128.318 23.0634C135.551 21.023 147.322 19.3184 158.585 19.3184C176.917 19.3184 185.149 24.079 185.149 30.209H185.157ZM178.097 33.9539C181.291 33.9539 183.306 32.9292 183.306 30.3814C183.306 25.4478 175.402 22.2111 164.139 22.2111C155.227 22.2111 146.65 23.9156 140.434 25.7836L157.251 30.0366C160.608 30.8889 164.311 31.7411 168.513 32.5851C172.715 33.4373 175.909 33.9455 178.097 33.9455V33.9539ZM25.0854 116.637C25.9292 100.985 41.394 85.5061 56.0234 78.188C66.1151 73.2551 79.7285 69.0021 95.0296 68.8297C93.5139 66.9618 91.6714 63.5527 91.6714 59.2997C91.6714 55.0466 93.1871 48.0734 99.7395 40.583C104.45 35.306 111.511 30.0366 121.094 26.4641C114.197 25.6119 105.458 25.1037 96.0371 25.1037C73.8388 25.1037 45.2602 31.7411 25.9206 47.2211C11.1275 59.4714 3.22295 75.2955 3.39516 89.7501C3.39516 103.87 11.7992 115.268 25.0854 116.628V116.637Z" fill="#29311E"/>
<path d="M147.518 94.9134C146.933 95.0337 146.494 95.0942 146.192 95.0942C145.426 95.0942 144.875 94.9475 144.522 94.6548C144.169 94.3622 143.902 94.0354 143.73 93.6823C142.206 90.333 140.381 87.8881 138.262 86.3643C136.144 84.8321 133.268 84.0744 129.626 84.0744C128.214 84.0744 126.861 84.2808 125.57 84.6945C124.339 85.0469 123.245 85.6065 122.307 86.3733C121.368 87.0789 120.602 87.9569 120.016 89.0163C119.491 90.0751 119.224 91.2548 119.224 92.5457C119.224 95.3097 120.369 97.5738 122.66 99.3382C125.011 101.103 128.446 102.894 132.975 104.719C138.615 106.958 142.765 109.454 145.409 112.218C148.113 114.921 149.464 118.279 149.464 122.273C149.464 124.684 149.086 126.948 148.319 129.066C147.614 131.124 146.468 132.949 144.884 134.533C143.351 136.065 141.353 137.271 138.891 138.149C136.42 139.036 133.458 139.474 129.987 139.474C126.345 139.474 123.021 139.095 120.025 138.329C117.089 137.563 114.592 136.564 112.534 135.333C112.353 132.863 112.094 130.478 111.741 128.188C111.389 125.898 110.975 123.6 110.51 121.309C110.923 121.128 111.423 121.042 112.008 121.042C112.715 121.042 113.239 121.223 113.593 121.576C114.006 121.869 114.359 122.368 114.652 123.074C116.124 127.31 118.001 130.426 120.292 132.424C122.642 134.421 125.906 135.419 130.082 135.419C131.959 135.419 133.604 135.152 135.016 134.628C136.428 134.103 137.599 133.362 138.546 132.424C139.485 131.485 140.191 130.426 140.664 129.247C141.138 128.067 141.371 126.81 141.371 125.45C141.371 122.394 140.312 119.983 138.202 118.218C136.144 116.454 133.173 114.87 129.298 113.458C126.775 112.519 124.477 111.546 122.419 110.548C120.361 109.489 118.595 108.284 117.132 106.931C115.659 105.58 114.514 104.022 113.696 102.257C112.929 100.432 112.55 98.2885 112.55 95.8171C112.55 93.6392 112.929 91.6162 113.696 89.731C114.522 87.7935 115.668 86.1147 117.132 84.7028C118.664 83.2909 120.481 82.1717 122.599 81.3542C124.718 80.5276 127.094 80.123 129.738 80.123C132.381 80.123 135.145 80.3893 137.668 80.9148C140.2 81.4397 143.05 82.3267 146.218 83.5579C146.339 85.3229 146.485 87.2339 146.658 89.2916C146.89 91.2888 147.192 93.1741 147.536 94.9391L147.518 94.9134Z" fill="#29311E"/>
<path d="M212.729 82.7395C212.85 82.5066 212.962 82.2654 213.082 82.0332C213.255 81.801 213.522 81.6203 213.874 81.5083C214.227 81.3874 214.701 81.3012 215.286 81.2414C215.872 81.1204 216.698 81.069 217.758 81.069H219.609C220.375 81.0085 221.193 80.9828 222.081 80.9828C222.959 80.9223 223.845 80.8625 224.724 80.8104C225.662 80.7506 226.515 80.6901 227.281 80.6387C227.402 81.224 227.462 81.6974 227.462 82.0506C227.462 82.989 227.169 83.4882 226.584 83.5486C224.465 83.8413 223.062 84.2542 222.356 84.7798C221.649 85.2532 221.297 85.899 221.297 86.7165C221.297 86.777 221.323 87.5688 221.382 89.1016C221.503 90.5733 221.649 93.0704 221.822 96.5997C221.994 100.069 222.201 104.719 222.442 110.539C222.735 116.358 223.062 123.59 223.415 132.242C223.475 133.362 223.854 134.179 224.56 134.713C225.266 135.247 226.704 135.685 228.882 136.039C229.175 136.099 229.382 136.272 229.503 136.573C229.675 136.805 229.77 137.097 229.77 137.451C229.77 137.804 229.709 138.277 229.597 138.862C227.539 138.742 225.662 138.63 223.957 138.509C222.313 138.449 220.78 138.424 219.377 138.424H217.172C216.294 138.484 215.347 138.509 214.348 138.509C213.41 138.57 212.471 138.63 211.523 138.691C210.585 138.75 209.759 138.811 209.052 138.871C208.932 138.285 208.871 137.812 208.871 137.46C208.871 136.521 209.164 136.048 209.75 136.048C212.1 135.574 213.685 135.109 214.512 134.635C215.39 134.162 215.838 133.37 215.838 132.251C215.838 132.07 215.777 130.985 215.657 128.988C215.596 126.99 215.484 124.545 215.304 121.67C215.183 118.786 215.037 115.67 214.864 112.32C214.744 108.972 214.598 105.82 214.425 102.885C214.304 99.8886 214.193 97.3317 214.072 95.2136C213.952 93.0356 213.891 91.7183 213.891 91.2448L194.586 137.916C194.354 138.44 194.113 138.828 193.88 139.061C193.708 139.353 193.441 139.5 193.088 139.5C192.675 139.5 192.408 139.473 192.296 139.414L170.7 89.833C170.64 90.4183 170.554 91.8649 170.433 94.1548C170.373 96.3933 170.253 99.062 170.08 102.178C169.96 105.296 169.813 108.584 169.641 112.062C169.469 115.532 169.288 118.735 169.116 121.679C168.996 124.614 168.884 127.085 168.763 129.091C168.703 131.088 168.677 132.147 168.677 132.268C168.677 134.093 170.675 135.359 174.67 136.064C175.255 136.125 175.548 136.598 175.548 137.476C175.548 137.829 175.488 138.303 175.376 138.888C173.792 138.768 172.233 138.656 170.7 138.536C169.176 138.475 167.816 138.449 166.645 138.449C165.706 138.449 164.441 138.475 162.856 138.536C161.272 138.656 159.773 138.768 158.361 138.888C158.241 138.303 158.189 137.829 158.189 137.476C158.189 136.65 158.482 136.185 159.068 136.064C160.652 135.772 161.918 135.359 162.856 134.833C163.855 134.248 164.414 133.396 164.535 132.276C164.535 131.743 164.596 130.279 164.716 127.868C164.836 125.398 164.948 122.488 165.069 119.139C165.25 115.79 165.422 112.226 165.594 108.463C165.767 104.701 165.922 101.232 166.034 98.0547C166.205 94.818 166.326 92.175 166.386 90.1173C166.507 87.9991 166.568 86.9146 166.568 86.8542C166.568 85.9157 166.189 85.2358 165.422 84.8229C164.716 84.3488 163.338 83.9442 161.281 83.5917C160.695 83.5313 160.402 83.0321 160.402 82.0937C160.402 81.7405 160.462 81.2671 160.583 80.6818C161.35 80.7416 162.202 80.802 163.141 80.8535C164.139 80.914 165.112 80.9744 166.051 81.0259C167.049 81.0259 167.988 81.0516 168.875 81.1121H170.993C172.052 81.1121 172.87 81.1726 173.464 81.2845C174.05 81.3443 174.524 81.4305 174.876 81.5507C175.229 81.6717 175.462 81.8441 175.583 82.0763C175.763 82.3085 175.91 82.5497 176.022 82.7819L194.888 126.801L212.78 82.7819L212.729 82.7395Z" fill="#29311E"/>
<path d="M253.32 84.6888V107.271H267.071C268.25 107.271 269.069 106.712 269.542 105.593C270.068 104.413 270.481 103.001 270.773 101.357C270.946 100.59 271.48 100.211 272.358 100.211C272.53 100.211 272.771 100.238 273.064 100.297C273.356 100.358 273.589 100.418 273.77 100.478C273.649 101.77 273.537 103.242 273.417 104.886C273.356 106.531 273.331 107.977 273.331 109.208C273.331 110.207 273.356 111.447 273.417 112.91C273.477 114.322 273.589 115.941 273.77 117.757C273.297 117.878 272.857 117.938 272.444 117.938C271.505 117.938 270.946 117.559 270.765 116.793C270.472 115.148 270.059 113.762 269.534 112.644C269.06 111.464 268.242 110.879 267.062 110.879H253.311V131.695C253.311 132.927 254.103 133.753 255.688 134.166C257.272 134.58 259.889 134.786 263.532 134.786H268.379C270.084 134.786 271.557 134.554 272.788 134.08C274.08 133.547 275.2 132.875 276.137 132.049C277.137 131.161 278.015 130.137 278.781 128.958C279.548 127.778 280.279 126.487 280.986 125.075C281.158 124.662 281.606 124.455 282.312 124.455C282.604 124.455 282.897 124.541 283.19 124.722C283.543 124.903 283.87 125.075 284.163 125.256C283.629 126.375 283.164 127.727 282.751 129.311C282.398 130.843 282.045 132.306 281.691 133.718C281.339 135.13 280.96 136.336 280.546 137.335C280.194 138.333 279.72 138.833 279.134 138.833C278.661 138.833 277.989 138.807 277.103 138.746C276.224 138.686 275.251 138.626 274.192 138.574C273.193 138.574 272.168 138.548 271.109 138.488C270.05 138.428 269.137 138.402 268.379 138.402H249.074C247.369 138.402 245.544 138.428 243.607 138.488C241.669 138.609 239.818 138.721 238.053 138.841C237.932 138.256 237.881 137.782 237.881 137.429C237.881 136.603 238.174 136.137 238.759 136.017C240.989 135.604 242.582 135.165 243.521 134.692C244.519 134.218 245.019 133.4 245.019 132.221V87.3152C245.019 86.1355 244.58 85.3437 243.693 84.9301C242.875 84.4567 241.222 83.9916 238.759 83.5182C238.174 83.3979 237.881 82.8988 237.881 82.0201V81.3145C237.941 81.0816 238.001 80.8411 238.053 80.6082C240.576 80.7806 242.694 80.9009 244.399 80.9614C246.104 81.0218 247.628 81.0476 248.98 81.0476H266.347C268.991 81.0476 271.282 80.9614 273.228 80.7806C275.165 80.6082 276.457 80.5137 277.111 80.5137C277.877 80.5137 278.376 81.0128 278.609 82.0118C278.902 82.9502 279.134 84.1035 279.315 85.4556C279.487 86.807 279.694 88.2446 279.935 89.7775C280.167 91.3096 280.615 92.6012 281.261 93.66C280.788 94.0131 280.263 94.1848 279.676 94.1848C278.91 94.1848 278.411 93.9186 278.179 93.393C277.472 91.8609 276.801 90.5693 276.147 89.5105C275.501 88.3913 274.734 87.4786 273.856 86.773C273.03 86.0667 272.005 85.5418 270.773 85.1887C269.593 84.8355 268.13 84.6631 266.365 84.6631H253.32V84.6888Z" fill="#29311E"/>
<path d="M313.216 112.653H306.689V132.057C306.689 133.349 307.274 134.235 308.454 134.701C309.686 135.174 311.536 135.553 314.008 135.845C314.714 135.966 315.067 136.466 315.067 137.344C315.067 137.757 315.007 138.256 314.895 138.842C313.311 138.721 311.365 138.609 309.074 138.488C306.844 138.429 304.64 138.402 302.461 138.402C300.937 138.402 299.171 138.429 297.174 138.488C295.176 138.609 293.291 138.721 291.534 138.842C291.414 138.256 291.362 137.783 291.362 137.43C291.362 136.603 291.689 136.138 292.335 136.018C294.565 135.665 296.123 135.252 297.011 134.787C297.949 134.253 298.423 133.409 298.423 132.23V87.3242C298.423 86.2049 297.983 85.3867 297.097 84.8535C296.27 84.2675 294.625 83.8198 292.163 83.5272C291.577 83.4674 291.284 82.9675 291.284 82.0298C291.284 81.6766 291.345 81.2032 291.465 80.6172C293.23 80.7381 295.047 80.8501 296.933 80.9703C298.81 81.0308 300.61 81.0565 302.306 81.0565H314.206C320.552 81.0565 325.34 82.4684 328.577 85.2922C331.806 88.0562 333.425 91.8184 333.425 96.5873C333.425 97.8789 333.192 99.2303 332.719 100.643C332.305 102.055 331.634 103.432 330.687 104.792C329.809 106.144 328.629 107.41 327.157 108.589C325.745 109.708 324.074 110.621 322.128 111.327L336.852 131.791C337.971 133.323 339.202 134.382 340.555 134.967C341.906 135.553 343.173 136 344.343 136.293C344.868 136.414 345.135 136.819 345.135 137.524C345.135 137.998 345.075 138.523 344.963 139.109C343.611 138.988 341.967 138.876 340.029 138.755C338.092 138.695 336.301 138.669 334.656 138.669C333.425 138.669 332.159 138.135 330.867 137.077C329.636 136.018 328.457 134.666 327.337 133.022L313.233 112.644L313.216 112.653ZM311.365 109.036C315.48 109.036 318.649 108.184 320.888 106.479C323.118 104.714 324.237 101.659 324.237 97.3019C324.237 95.4771 324.005 93.7983 323.531 92.2744C323.058 90.7506 322.3 89.425 321.241 88.3057C320.242 87.1865 318.89 86.3085 317.186 85.6627C315.541 85.0169 313.508 84.6895 311.098 84.6895H306.689V109.036H311.365Z" fill="#29311E"/>
<path d="M382.362 118.071H362.703L357.063 132.276C356.77 132.982 356.624 133.568 356.624 134.041C356.624 135.272 358.416 136.159 362.006 136.684C362.42 136.744 362.678 136.916 362.798 137.218C362.97 137.45 363.065 137.743 363.065 138.096C363.065 138.449 363.005 138.923 362.884 139.508C361.3 139.387 359.621 139.275 357.864 139.155C356.099 139.094 354.368 139.069 352.663 139.069C351.493 139.069 350.287 139.094 349.047 139.155C347.816 139.215 346.524 139.335 345.172 139.508C345.051 139.034 345 138.569 345 138.096C345 137.682 345.06 137.33 345.172 137.037C345.344 136.744 345.672 136.563 346.145 136.503C347.971 136.211 349.323 135.858 350.201 135.444C351.139 134.971 351.819 134.265 352.224 133.326L373.467 82.1622C373.88 81.1632 374.44 80.6641 375.146 80.6641C375.378 80.6641 375.732 80.7239 376.205 80.8358L397.542 133.584C397.895 134.411 398.687 135.057 399.918 135.522C401.15 135.995 402.355 136.314 403.535 136.494C403.888 136.615 404.155 136.787 404.327 137.028C404.56 137.209 404.68 137.554 404.68 138.087C404.68 138.44 404.62 138.914 404.508 139.499C402.631 139.379 400.78 139.267 398.954 139.146C397.129 139.086 395.424 139.06 393.84 139.06C392.255 139.06 390.309 139.086 388.199 139.146C386.082 139.267 384.179 139.379 382.474 139.499C382.353 138.914 382.301 138.44 382.301 138.087C382.301 137.554 382.388 137.209 382.568 137.028C382.801 136.796 383.008 136.675 383.188 136.675C384.713 136.382 385.952 136.056 386.891 135.703C387.829 135.289 388.303 134.704 388.303 133.938C388.303 133.584 388.183 133.146 387.95 132.612L382.396 118.054L382.362 118.071ZM380.95 114.455L372.752 92.8462L364.202 114.455H380.95Z" fill="#29311E"/>
<path d="M424.464 132.056C424.464 133.054 424.904 133.761 425.79 134.174C426.668 134.587 427.874 134.794 429.407 134.794H439.017C440.722 134.794 442.193 134.587 443.425 134.174C444.656 133.7 445.716 133.054 446.602 132.237C447.48 131.41 448.247 130.411 448.893 129.241C449.599 128.009 450.219 126.623 450.744 125.091C450.916 124.618 451.269 124.385 451.803 124.385C452.096 124.385 452.388 124.471 452.681 124.652C453.034 124.773 453.388 124.919 453.741 125.091C453.327 126.856 452.914 128.742 452.509 130.739C452.156 132.676 451.838 134.888 451.536 137.35C451.476 137.996 451.304 138.409 451.011 138.582C450.718 138.754 450.365 138.849 449.952 138.849C448.953 138.849 447.688 138.762 446.164 138.582C444.691 138.461 443.399 138.401 442.28 138.401H420.245C418.893 138.401 417.188 138.427 415.13 138.487C413.072 138.607 411.1 138.719 409.224 138.84C409.103 138.255 409.043 137.781 409.043 137.428C409.043 136.602 409.336 136.137 409.921 136.016C412.332 135.603 413.977 135.164 414.855 134.69C415.733 134.165 416.181 133.364 416.181 132.306V87.3137C416.181 86.1347 415.768 85.3165 414.949 84.8431C414.123 84.3182 412.539 83.8705 410.188 83.5174C409.895 83.4569 409.662 83.3109 409.482 83.078C409.361 82.7854 409.301 82.4587 409.301 82.1055C409.301 81.6919 409.361 81.1928 409.482 80.6074C411.479 80.7277 413.451 80.8396 415.389 80.9606C417.326 81.0203 418.971 81.0461 420.323 81.0461C422.32 81.0461 424.439 81.0203 426.668 80.9606C428.899 80.8396 430.896 80.7277 432.662 80.6074C432.782 81.1928 432.834 81.6662 432.834 82.0193C432.834 83.0176 432.507 83.5515 431.861 83.6036C429.338 83.8963 427.452 84.3349 426.221 84.9293C425.05 85.4541 424.456 86.4614 424.456 87.9255V132.03L424.464 132.056Z" fill="#29311E"/>
<path d="M507.653 111.418C507.653 102.362 505.389 95.6546 500.868 91.3071C496.399 86.8997 489.846 84.6953 481.209 84.6953H473.538V131.624C473.538 132.209 473.684 132.709 473.976 133.122C474.27 133.536 474.769 133.854 475.475 134.095C476.181 134.327 477.154 134.508 478.385 134.62C479.616 134.74 481.175 134.801 483.061 134.801C487.59 134.801 491.404 134.267 494.522 133.217C497.639 132.097 500.161 130.54 502.099 128.542C504.036 126.485 505.448 124.013 506.327 121.13C507.205 118.246 507.653 115.017 507.653 111.427V111.418ZM516.909 109.739C516.909 113.209 516.289 116.653 515.058 120.062C513.887 123.471 512.062 126.562 509.59 129.326C507.18 132.029 504.097 134.233 500.334 135.938C496.631 137.582 492.283 138.408 487.289 138.408H469.215C467.683 138.408 465.951 138.434 464.014 138.494C462.077 138.615 460.191 138.727 458.374 138.847C458.254 138.262 458.193 137.788 458.193 137.436C458.193 136.609 458.52 136.144 459.166 136.024C461.345 135.498 462.895 134.991 463.842 134.526C464.78 134.052 465.254 133.294 465.254 132.236V87.33C465.254 86.1503 464.815 85.3328 463.928 84.8587C463.05 84.3853 461.457 83.9466 459.166 83.533C458.814 83.4732 458.547 83.3008 458.374 83.0082C458.254 82.7155 458.193 82.3881 458.193 82.0349C458.193 81.6825 458.254 81.2084 458.374 80.623C459.605 80.744 460.664 80.8302 461.552 80.89C462.49 80.89 463.377 80.9157 464.195 80.9762C465.022 81.0367 465.814 81.0624 466.572 81.0624H487.203C492.136 81.0624 496.459 81.8285 500.161 83.3523C503.924 84.8851 507.041 86.9421 509.504 89.5254C511.976 92.1162 513.827 95.1381 515.058 98.6077C516.289 102.077 516.909 105.779 516.909 109.722V109.739Z" fill="#29311E"/>
<path d="M552.056 117.411H532.398L526.758 131.616C526.465 132.322 526.319 132.908 526.319 133.381C526.319 134.612 528.11 135.498 531.692 136.024C532.105 136.084 532.363 136.256 532.484 136.558C532.665 136.79 532.751 137.083 532.751 137.436C532.751 137.789 532.691 138.262 532.57 138.848C530.986 138.727 529.307 138.615 527.541 138.495C525.776 138.434 524.046 138.408 522.341 138.408C521.161 138.408 519.964 138.434 518.725 138.495C517.493 138.555 516.201 138.675 514.85 138.848C514.729 138.374 514.669 137.909 514.669 137.436C514.669 137.022 514.729 136.67 514.85 136.376C515.021 136.084 515.349 135.903 515.822 135.843C517.648 135.551 519 135.197 519.878 134.784C520.817 134.31 521.497 133.605 521.901 132.666L543.144 81.502C543.557 80.503 544.117 80.0039 544.823 80.0039C545.056 80.0039 545.409 80.0637 545.882 80.1756L567.219 132.924C567.572 133.751 568.364 134.397 569.596 134.862C570.827 135.335 572.033 135.653 573.213 135.834C573.566 135.955 573.833 136.127 574.004 136.368C574.237 136.549 574.358 136.894 574.358 137.427C574.358 137.78 574.297 138.253 574.177 138.839C572.3 138.718 570.448 138.607 568.623 138.486C566.797 138.426 565.101 138.4 563.509 138.4C561.916 138.4 559.986 138.426 557.868 138.486C555.75 138.607 553.838 138.718 552.142 138.839C552.022 138.253 551.961 137.78 551.961 137.427C551.961 136.894 552.047 136.549 552.228 136.368C552.46 136.136 552.668 136.015 552.848 136.015C554.372 135.722 555.612 135.396 556.551 135.042C557.489 134.629 557.963 134.043 557.963 133.277C557.963 132.924 557.843 132.486 557.61 131.952L552.056 117.393V117.411ZM550.644 113.795L542.446 92.186L533.896 113.795H550.644Z" fill="#29311E"/>
<path d="M209.368 63.4254V1.23242H258.828V15.2568H225.504V25.6653H254.419V38.8978H225.504V49.3921H258.828V63.4164H209.368V63.4254Z" fill="#29311E"/>
<path d="M267.912 63.4254V1.23242H291.712C308.727 1.23242 326.361 5.55421 326.361 32.2861C326.361 59.0174 308.727 63.4254 291.712 63.4254H267.912ZM283.963 49.3149H291.721C302.389 49.3149 310.32 48.9618 310.32 32.2861C310.32 15.6098 302.295 15.2568 291.721 15.2568H283.963V49.3059V49.3149Z" fill="#29311E"/>
<path d="M362.474 64.5777C344.134 64.5777 332.768 51.9653 332.768 32.8183C332.768 12.5264 345.46 0 364.86 0C381.341 0 394.127 9.43564 396.246 23.469H379.765C378.706 17.6488 372.885 13.8522 365.747 13.8522C355.431 13.8522 349.352 20.817 349.352 32.5513C349.352 43.5795 354.639 50.5444 366.633 50.5444C375.804 50.5444 381.616 46.5756 382.236 40.4888H367.254V28.2295H390.089C395.29 28.2295 398.467 31.2257 398.467 36.6063V63.4237H382.512V59.1881L385.595 47.9875H381.538C381.978 50.7251 381.272 64.5687 362.501 64.5687L362.474 64.5777Z" fill="#29311E"/>
<path d="M408.412 63.4254V1.23242H457.872V15.2568H424.549V25.6653H453.463V38.8978H424.549V49.3921H457.872V63.4164H408.412V63.4254Z" fill="#29311E"/>
</g>
</svg>
